<?xml version="1.0" encoding="utf-8"?>
<svg viewBox="0 0 500 500" xmlns="http://www.w3.org/2000/svg" xmlns:bx="https://boxy-svg.com">
  <defs>
    <linearGradient gradientUnits="userSpaceOnUse" x1="155.112" y1="-89.946" x2="155.112" y2="409.628" id="gradient-0" gradientTransform="matrix(0.70775, -0.707886, 0.997658, 0.998078, -20.022636, 199.891801)">
      <stop offset="0" style="stop-color: rgb(56, 186, 58);"/>
      <stop offset="1" style="stop-color: rgb(27, 136, 166);"/>
    </linearGradient>
  </defs>
  <circle style="fill: url(#gradient-0);" cx="250" cy="250" r="250"/>
  <path style="fill: rgba(216, 216, 216, 0.3);" transform="matrix(-0.003, 0.831578, -0.831578, -0.002999, 601.839294, -182.363449)" d="M 492.889 179.843 L 551.737 179.843 L 565.292 265.632 A 160.575 160.575 0 0 1 601.323 280.556 L 671.57 229.48 L 713.181 271.091 L 662.105 341.338 A 160.575 160.575 0 0 1 677.029 377.369 L 762.818 390.924 L 762.818 449.772 L 677.029 463.327 A 160.575 160.575 0 0 1 662.105 499.358 L 713.181 569.605 L 671.57 611.216 L 601.323 560.14 A 160.575 160.575 0 0 1 565.292 575.064 L 551.737 660.853 L 492.889 660.853 L 479.334 575.064 A 160.575 160.575 0 0 1 443.303 560.14 L 373.056 611.216 L 331.445 569.605 L 382.521 499.358 A 160.575 160.575 0 0 1 367.597 463.327 L 281.808 449.772 L 281.808 390.924 L 367.597 377.369 A 160.575 160.575 0 0 1 382.521 341.338 L 331.445 271.091 L 373.056 229.48 L 443.303 280.556 A 160.575 160.575 0 0 1 479.334 265.632 Z M 522.313 336.757 A 83.591 83.591 0 0 0 522.313 503.939 A 83.591 83.591 0 0 0 522.313 336.757" bx:shape="cog 522.313 420.348 83.591 160.575 240.505 0.38 8 1@0fb5e019"/>
</svg>