<svg width="300" height="300" viewBox="0 0 300 300" fill="none" xmlns="http://www.w3.org/2000/svg">
<path d="M117.092 47.9516L150 29.0369L182.908 47.9516V85.7538L150 104.668L117.092 85.7538V47.9516Z" fill="white" stroke="black" stroke-width="7"/>
<path d="M117.092 130.541L150 111.626L182.908 130.541V168.343L150 187.258L117.092 168.343V130.541Z" fill="white" stroke="black" stroke-width="7"/>
<path d="M117.092 213.13L150 194.216L182.908 213.13V250.932L150 269.847L117.092 250.932V213.13Z" fill="white" stroke="black" stroke-width="7"/>
<path d="M45.3431 89.2462L78.2511 70.3316L111.159 89.2462V127.048L78.2511 145.963L45.3431 127.048V89.2462Z" fill="white" stroke="black" stroke-width="7"/>
<path d="M45.3431 171.835L78.2511 152.921L111.159 171.835V209.638L78.2511 228.552L45.3431 209.638V171.835Z" fill="white" stroke="black" stroke-width="7"/>
<path d="M188.841 89.2462L221.749 70.3316L254.657 89.2462V127.048L221.749 145.963L188.841 127.048V89.2462Z" fill="white" stroke="black" stroke-width="7"/>
<path d="M188.841 171.835L221.749 152.921L254.657 171.835V209.638L221.749 228.552L188.841 209.638V171.835Z" fill="white" stroke="black" stroke-width="7"/>
</svg>
