<svg width="240" height="240" viewBox="0 0 240 240" fill="none" xmlns="http://www.w3.org/2000/svg">
<g clip-path="url(#clip0_30_2)">
<path d="M163.53 213.597C154.717 217.707 141.029 214.393 124.7 200.63C108.862 187.281 92.6296 165.664 80.1224 138.843C67.6153 112.021 61.4898 85.6911 61.4443 64.9786C61.3974 43.6226 67.6574 31.0073 76.4703 26.8978C85.2831 22.7883 98.9709 26.1018 115.3 39.8651C131.138 53.2137 147.37 74.8307 159.877 101.652C172.385 128.474 178.51 154.804 178.556 175.516C178.603 196.872 172.343 209.488 163.53 213.597Z" stroke="black" stroke-width="14"/>
<path d="M163.076 213.809C153.538 218.256 139.419 214.33 123.338 200.655C107.622 187.291 91.5872 165.795 79.2161 139.265C66.845 112.735 60.6855 86.6345 60.55 66.0059C60.4113 44.8968 66.4785 31.5571 76.0171 27.1091C85.5557 22.6612 99.6745 26.5881 115.756 40.263C131.471 53.6266 147.506 75.1224 159.877 101.652C172.249 128.182 178.408 154.283 178.544 174.912C178.682 196.021 172.615 209.361 163.076 213.809Z" stroke="white" stroke-width="10"/>
<path d="M223 120.247C223 129.971 214.212 140.976 194.837 149.959C176.046 158.672 149.594 164.247 120 164.247C90.4056 164.247 63.9538 158.672 45.1626 149.959C25.7877 140.976 17 129.971 17 120.247C17 110.524 25.7877 99.5186 45.1626 90.5357C63.9538 81.8234 90.4056 76.2475 120 76.2475C149.594 76.2475 176.046 81.8234 194.837 90.5357C214.212 99.5186 223 110.524 223 120.247Z" stroke="black" stroke-width="14"/>
<path d="M223 120.747C223 131.272 213.474 142.409 194.284 151.204C175.531 159.799 149.273 165.247 120 165.247C90.7275 165.247 64.4689 159.799 45.7157 151.204C26.5258 142.409 17 131.272 17 120.747C17 110.223 26.5258 99.0864 45.7157 90.291C64.4689 81.6958 90.7275 76.2475 120 76.2475C149.273 76.2475 175.531 81.6958 194.284 90.291C213.474 99.0864 223 110.223 223 120.747Z" stroke="white" stroke-width="10"/>
<path d="M163.53 26.8977C172.343 31.0072 178.603 43.6225 178.556 64.9785C178.51 85.691 172.385 112.021 159.878 138.843C147.37 165.664 131.138 187.281 115.3 200.63C98.9709 214.393 85.2832 217.707 76.4703 213.597C67.6574 209.488 61.3974 196.872 61.4443 175.516C61.4898 154.804 67.6153 128.474 80.1224 101.652C92.6296 74.8305 108.862 53.2136 124.7 39.865C141.029 26.1017 154.717 22.7882 163.53 26.8977Z" stroke="black" stroke-width="14"/>
<path d="M163.983 27.109C173.521 31.5569 179.589 44.8967 179.45 66.0058C179.314 86.6344 173.155 112.735 160.784 139.265C148.413 165.795 132.377 187.291 116.662 200.655C100.581 214.329 86.4621 218.256 76.9234 213.808C67.3848 209.36 61.3176 196.021 61.4563 174.912C61.5918 154.283 67.7513 128.182 80.1224 101.652C92.4935 75.1223 108.529 53.6265 124.244 40.2629C140.325 26.5879 154.444 22.6611 163.983 27.109Z" stroke="white" stroke-width="10"/>
<circle cx="120" cy="120.247" r="17" fill="white" stroke="black" stroke-width="2"/>
</g>
<defs>
<clipPath id="clip0_30_2">
<rect width="240" height="240" fill="white"/>
</clipPath>
</defs>
</svg>
