<svg width="300" height="300" viewBox="0 0 300 300" fill="none" xmlns="http://www.w3.org/2000/svg">
<mask id="path-1-inside-1_402_2" fill="white">
<path shape-rendering="crispEdges"  fill-rule="evenodd" clip-rule="evenodd" d="M50 39H88.4615V98.94H103.846V39H142.308V98.94H157.692V39H196.154V98.94H211.538V39H250V98.94V105.6V132.24H220.33V216.6H78.5714V132.24H50V105.6V98.94V39ZM248 226H50V268H248V226Z"/>
</mask>
<path shape-rendering="crispEdges"  fill-rule="evenodd" clip-rule="evenodd" d="M50 39H88.4615V98.94H103.846V39H142.308V98.94H157.692V39H196.154V98.94H211.538V39H250V98.94V105.6V132.24H220.33V216.6H78.5714V132.24H50V105.6V98.94V39ZM248 226H50V268H248V226Z" fill="white"/>
<path shape-rendering="crispEdges"  d="M88.4615 39H98.4615V29H88.4615V39ZM50 39V29H40V39H50ZM88.4615 98.94H78.4615V108.94H88.4615V98.94ZM103.846 98.94V108.94H113.846V98.94H103.846ZM103.846 39V29H93.8462V39H103.846ZM142.308 39H152.308V29H142.308V39ZM142.308 98.94H132.308V108.94H142.308V98.94ZM157.692 98.94V108.94H167.692V98.94H157.692ZM157.692 39V29H147.692V39H157.692ZM196.154 39H206.154V29H196.154V39ZM196.154 98.94H186.154V108.94H196.154V98.94ZM211.538 98.94V108.94H221.538V98.94H211.538ZM211.538 39V29H201.538V39H211.538ZM250 39H260V29H250V39ZM250 132.24V142.24H260V132.24H250ZM220.33 132.24V122.24H210.33V132.24H220.33ZM220.33 216.6V226.6H230.33V216.6H220.33ZM78.5714 216.6H68.5714V226.6H78.5714V216.6ZM78.5714 132.24H88.5714V122.24H78.5714V132.24ZM50 132.24H40V142.24H50V132.24ZM50 226V216H40V226H50ZM248 226H258V216H248V226ZM50 268H40V278H50V268ZM248 268V278H258V268H248ZM88.4615 29H50V49H88.4615V29ZM98.4615 98.94V39H78.4615V98.94H98.4615ZM103.846 88.94H88.4615V108.94H103.846V88.94ZM93.8462 39V98.94H113.846V39H93.8462ZM142.308 29H103.846V49H142.308V29ZM152.308 98.94V39H132.308V98.94H152.308ZM157.692 88.94H142.308V108.94H157.692V88.94ZM147.692 39V98.94H167.692V39H147.692ZM196.154 29H157.692V49H196.154V29ZM206.154 98.94V39H186.154V98.94H206.154ZM211.538 88.94H196.154V108.94H211.538V88.94ZM201.538 39V98.94H221.538V39H201.538ZM250 29H211.538V49H250V29ZM260 98.94V39H240V98.94H260ZM260 105.6V98.94H240V105.6H260ZM260 132.24V105.6H240V132.24H260ZM220.33 142.24H250V122.24H220.33V142.24ZM230.33 216.6V132.24H210.33V216.6H230.33ZM78.5714 226.6H220.33V206.6H78.5714V226.6ZM68.5714 132.24V216.6H88.5714V132.24H68.5714ZM50 142.24H78.5714V122.24H50V142.24ZM40 105.6V132.24H60V105.6H40ZM40 98.94V105.6H60V98.94H40ZM40 39V98.94H60V39H40ZM50 236H248V216H50V236ZM60 268V226H40V268H60ZM248 258H50V278H248V258ZM238 226V268H258V226H238Z" fill="black" mask="url(#path-1-inside-1_402_2)"/>
</svg>
