<svg width="300" height="300" viewBox="0 0 300 300" fill="none" xmlns="http://www.w3.org/2000/svg">
<path d="M31 22H86V89H94V22H147V89H155V22H207V89H214V22H269V89V97V155H234V221H65V155H31V97V89V22ZM267 231H31V278H267V231Z" fill="white"/>
<path d="M86 22H93V15H86V22ZM31 22V15H24V22H31ZM86 89H79V96H86V89ZM94 89V96H101V89H94ZM94 22V15H87V22H94ZM147 22H154V15H147V22ZM147 89H140V96H147V89ZM155 89V96H162V89H155ZM155 22V15H148V22H155ZM207 22H214V15H207V22ZM207 89H200V96H207V89ZM214 89V96H221V89H214ZM214 22V15H207V22H214ZM269 22H276V15H269V22ZM269 155V162H276V155H269ZM234 155V148H227V155H234ZM234 221V228H241V221H234ZM65 221H58V228H65V221ZM65 155H72V148H65V155ZM31 155H24V162H31V155ZM31 231V224H24V231H31ZM267 231H274V224H267V231ZM31 278H24V285H31V278ZM267 278V285H274V278H267ZM86 15H31V29H86V15ZM93 89V22H79V89H93ZM94 82H86V96H94V82ZM87 22V89H101V22H87ZM147 15H94V29H147V15ZM154 89V22H140V89H154ZM155 82H147V96H155V82ZM148 22V89H162V22H148ZM207 15H155V29H207V15ZM214 89V22H200V89H214ZM214 82H207V96H214V82ZM207 22V89H221V22H207ZM269 15H214V29H269V15ZM276 89V22H262V89H276ZM276 97V89H262V97H276ZM276 155V97H262V155H276ZM234 162H269V148H234V162ZM241 221V155H227V221H241ZM65 228H234V214H65V228ZM58 155V221H72V155H58ZM31 162H65V148H31V162ZM24 97V155H38V97H24ZM24 89V97H38V89H24ZM24 22V89H38V22H24ZM31 238H267V224H31V238ZM38 278V231H24V278H38ZM267 271H31V285H267V271ZM260 231V278H274V231H260Z" fill="black"/>
</svg>
