<svg width="300" height="300" viewBox="0 0 300 300" fill="none" xmlns="http://www.w3.org/2000/svg">
<mask id="path-1-inside-1_402_2" fill="white">
<path shape-rendering="crispEdges" d="M31 22H77V89H91V22H144V89H158V22H210V89H223V22H269V89V97V155H234V221H65V155H31V97V89V22ZM267 231H31V278H267V231Z"/>
</mask>
<path shape-rendering="crispEdges" d="M31 22H77V89H91V22H144V89H158V22H210V89H223V22H269V89V97V155H234V221H65V155H31V97V89V22ZM267 231H31V278H267V231Z" fill="white"/>
<path shape-rendering="optimizeQuality" d="M77 22H87V12H77V22ZM31 22V12H21V22H31ZM77 89H67V99H77V89ZM91 89V99H101V89H91ZM91 22V12H81V22H91ZM144 22H154V12H144V22ZM144 89H134V99H144V89ZM158 89V99H168V89H158ZM158 22V12H148V22H158ZM210 22H220V12H210V22ZM210 89H200V99H210V89ZM223 89V99H233V89H223ZM223 22V12H213V22H223ZM269 22H279V12H269V22ZM269 155V165H279V155H269ZM234 155V145H224V155H234ZM234 221V231H244V221H234ZM65 221H55V231H65V221ZM65 155H75V145H65V155ZM31 155H21V165H31V155ZM31 231V221H21V231H31ZM267 231H277V221H267V231ZM31 278H21V288H31V278ZM267 278V288H277V278H267ZM77 12H31V32H77V12ZM87 89V22H67V89H87ZM91 79H77V99H91V79ZM81 22V89H101V22H81ZM144 12H91V32H144V12ZM154 89V22H134V89H154ZM158 79H144V99H158V79ZM148 22V89H168V22H148ZM210 12H158V32H210V12ZM220 89V22H200V89H220ZM223 79H210V99H223V79ZM213 22V89H233V22H213ZM269 12H223V32H269V12ZM279 89V22H259V89H279ZM279 97V89H259V97H279ZM279 155V97H259V155H279ZM234 165H269V145H234V165ZM244 221V155H224V221H244ZM65 231H234V211H65V231ZM55 155V221H75V155H55ZM31 165H65V145H31V165ZM21 97V155H41V97H21ZM21 89V97H41V89H21ZM21 22V89H41V22H21ZM31 241H267V221H31V241ZM41 278V231H21V278H41ZM267 268H31V288H267V268ZM257 231V278H277V231H257Z" fill="black" mask="url(#path-1-inside-1_402_2)"/>
</svg>
