<svg width="300" height="300" viewBox="0 0 300 300" fill="none" xmlns="http://www.w3.org/2000/svg">
<path d="M31 22H77V89H91V22H144V89H158V22H210V89H223V22H269V89V97V155H234V221H65V155H31V97V89V22ZM267 231H31V278H267V231Z" fill="white"/>
<path d="M77 22H84V15H77V22ZM31 22V15H24V22H31ZM77 89H70V96H77V89ZM91 89V96H98V89H91ZM91 22V15H84V22H91ZM144 22H151V15H144V22ZM144 89H137V96H144V89ZM158 89V96H165V89H158ZM158 22V15H151V22H158ZM210 22H217V15H210V22ZM210 89H203V96H210V89ZM223 89V96H230V89H223ZM223 22V15H216V22H223ZM269 22H276V15H269V22ZM269 155V162H276V155H269ZM234 155V148H227V155H234ZM234 221V228H241V221H234ZM65 221H58V228H65V221ZM65 155H72V148H65V155ZM31 155H24V162H31V155ZM31 231V224H24V231H31ZM267 231H274V224H267V231ZM31 278H24V285H31V278ZM267 278V285H274V278H267ZM77 15H31V29H77V15ZM84 89V22H70V89H84ZM91 82H77V96H91V82ZM84 22V89H98V22H84ZM144 15H91V29H144V15ZM151 89V22H137V89H151ZM158 82H144V96H158V82ZM151 22V89H165V22H151ZM210 15H158V29H210V15ZM217 89V22H203V89H217ZM223 82H210V96H223V82ZM216 22V89H230V22H216ZM269 15H223V29H269V15ZM276 89V22H262V89H276ZM276 97V89H262V97H276ZM276 155V97H262V155H276ZM234 162H269V148H234V162ZM241 221V155H227V221H241ZM65 228H234V214H65V228ZM58 155V221H72V155H58ZM31 162H65V148H31V162ZM24 97V155H38V97H24ZM24 89V97H38V89H24ZM24 22V89H38V22H24ZM31 238H267V224H31V238ZM38 278V231H24V278H38ZM267 271H31V285H267V271ZM260 231V278H274V231H260Z" fill="black"/>
</svg>
