<svg width="261" height="270" viewBox="0 0 261 270" fill="none" xmlns="http://www.w3.org/2000/svg">
<mask id="path-1-inside-1_402_2" fill="white">
<path fill-rule="evenodd" clip-rule="evenodd" d="M50 9H88.4615V68.94H103.846V9H142.308V68.94H157.692V9H196.154V68.94H211.538V9H250V68.94V75.6V102.24H220.33V186.6H78.5714V102.24H50V75.6V68.94V9ZM247.802 204.36H50V231H247.802V204.36Z"/>
</mask>
<path fill-rule="evenodd" clip-rule="evenodd" d="M50 9H88.4615V68.94H103.846V9H142.308V68.94H157.692V9H196.154V68.94H211.538V9H250V68.94V75.6V102.24H220.33V186.6H78.5714V102.24H50V75.6V68.94V9ZM247.802 204.36H50V231H247.802V204.36Z" fill="white"/>
<path d="M88.4615 9H98.4615V-1H88.4615V9ZM50 9V-1H40V9H50ZM88.4615 68.94H78.4615V78.94H88.4615V68.94ZM103.846 68.94V78.94H113.846V68.94H103.846ZM103.846 9V-1H93.8462V9H103.846ZM142.308 9H152.308V-1H142.308V9ZM142.308 68.94H132.308V78.94H142.308V68.94ZM157.692 68.94V78.94H167.692V68.94H157.692ZM157.692 9V-1H147.692V9H157.692ZM196.154 9H206.154V-1H196.154V9ZM196.154 68.94H186.154V78.94H196.154V68.94ZM211.538 68.94V78.94H221.538V68.94H211.538ZM211.538 9V-1H201.538V9H211.538ZM250 9H260V-1H250V9ZM250 102.24V112.24H260V102.24H250ZM220.33 102.24V92.24H210.33V102.24H220.33ZM220.33 186.6V196.6H230.33V186.6H220.33ZM78.5714 186.6H68.5714V196.6H78.5714V186.6ZM78.5714 102.24H88.5714V92.24H78.5714V102.24ZM50 102.24H40V112.24H50V102.24ZM50 204.36V194.36H40V204.36H50ZM247.802 204.36H257.802V194.36H247.802V204.36ZM50 231H40V241H50V231ZM247.802 231V241H257.802V231H247.802ZM88.4615 -1H50V19H88.4615V-1ZM98.4615 68.94V9H78.4615V68.94H98.4615ZM103.846 58.94H88.4615V78.94H103.846V58.94ZM93.8462 9V68.94H113.846V9H93.8462ZM142.308 -1H103.846V19H142.308V-1ZM152.308 68.94V9H132.308V68.94H152.308ZM157.692 58.94H142.308V78.94H157.692V58.94ZM147.692 9V68.94H167.692V9H147.692ZM196.154 -1H157.692V19H196.154V-1ZM206.154 68.94V9H186.154V68.94H206.154ZM211.538 58.94H196.154V78.94H211.538V58.94ZM201.538 9V68.94H221.538V9H201.538ZM250 -1H211.538V19H250V-1ZM260 68.94V9H240V68.94H260ZM260 75.6V68.94H240V75.6H260ZM260 102.24V75.6H240V102.24H260ZM220.33 112.24H250V92.24H220.33V112.24ZM230.33 186.6V102.24H210.33V186.6H230.33ZM78.5714 196.6H220.33V176.6H78.5714V196.6ZM68.5714 102.24V186.6H88.5714V102.24H68.5714ZM50 112.24H78.5714V92.24H50V112.24ZM40 75.6V102.24H60V75.6H40ZM40 68.94V75.6H60V68.94H40ZM40 9V68.94H60V9H40ZM50 214.36H247.802V194.36H50V214.36ZM60 231V204.36H40V231H60ZM247.802 221H50V241H247.802V221ZM237.802 204.36V231H257.802V204.36H237.802Z" fill="black" mask="url(#path-1-inside-1_402_2)"/>
</svg>
