<svg width="280" height="280" viewBox="0 0 280 280" fill="none" xmlns="http://www.w3.org/2000/svg">
<path d="M140 268L151.547 248H128.453L140 268ZM138 142.51V250H142V142.51H138Z" fill="white"/>
<path d="M140 259.216L145.774 249.216H134.226L140 259.216ZM139 142.51V250.216H141V142.51H139Z" fill="black"/>
<path d="M268 140L248 128.453V151.547L268 140ZM141.267 142H250V138H141.267V142Z" fill="white"/>
<path d="M259.129 140L249.129 134.226V145.774L259.129 140ZM141.267 141H250.129V139H141.267V141Z" fill="black"/>
<path d="M140 12L128.453 32H151.547L140 12ZM142 137.49L142 30H138L138 137.49H142Z" fill="white"/>
<path d="M140 20.7843L134.226 30.7843H145.774L140 20.7843ZM141 137.49L141 29.7843H139L139 137.49H141Z" fill="black"/>
<path d="M12 140L32 151.547V128.453L12 140ZM138.733 138L30 138V142L138.733 142V138Z" fill="white"/>
<path d="M20.8713 140L30.8713 145.774V134.226L20.8713 140ZM138.733 139L29.8713 139V141L138.733 141V139Z" fill="black"/>
<path d="M48.9771 229.322L71.4216 223.479L55.088 207.153L48.9771 229.322ZM134.784 142.351L60.4125 215.303L63.2416 218.131L137.613 145.179L134.784 142.351Z" fill="white"/>
<path d="M55.0826 223.333L66.3048 220.412L58.138 212.248L55.0826 223.333ZM135.491 143.058L60.8003 216.323L62.2148 217.737L136.905 144.472L135.491 143.058Z" fill="black"/>
<path d="M230.432 229.545L224.425 207.348L208.015 223.597L230.432 229.545ZM142.381 145.172L216.22 218.287L219.062 215.473L145.223 142.357L142.381 145.172Z" fill="white"/>
<path d="M224.368 223.54L221.364 212.442L213.159 220.567L224.368 223.54ZM143.091 144.468L217.262 217.912L218.683 216.504L144.513 143.061L143.091 144.468Z" fill="black"/>
<path d="M230.432 50.902L208 56.791L224.367 73.0831L230.432 50.902ZM145.219 137.646L219.026 64.9445L216.191 62.1226L142.384 134.824L145.219 137.646Z" fill="white"/>
<path d="M224.368 56.8753L213.152 59.8198L221.335 67.9659L224.368 56.8753ZM144.511 136.941L218.665 63.8966L217.247 62.4856L143.093 135.53L144.511 136.941Z" fill="black"/>
<path d="M50.0198 50.902L56.0264 73.0989L72.4365 56.8496L50.0198 50.902ZM137.619 134.828L64.2314 62.1598L61.3891 64.9743L134.777 137.643L137.619 134.828Z" fill="white"/>
<path d="M56.0523 56.8753L59.0556 67.9738L67.2606 59.8491L56.0523 56.8753ZM136.909 135.532L63.1581 62.5042L61.7369 63.9114L135.487 136.939L136.909 135.532Z" fill="black"/>
<circle cx="139.5" cy="139.5" r="76.5" stroke="black" stroke-width="2"/>
<path d="M217.574 139.373C217.574 182.127 182.569 216.804 139.366 216.804C96.164 216.804 61.1584 182.127 61.1584 139.373C61.1584 96.6176 96.164 61.9412 139.366 61.9412C182.569 61.9412 217.574 96.6176 217.574 139.373Z" stroke="white" stroke-width="2"/>
<circle cx="139.5" cy="139.5" r="74.5" stroke="white" stroke-width="2"/>
<rect x="132.707" y="140.121" width="10.4853" height="10.1421" transform="rotate(-45 132.707 140.121)" fill="black" stroke="white"/>
</svg>
