<svg width="280" height="280" viewBox="0 0 280 280" fill="none" xmlns="http://www.w3.org/2000/svg">
<path d="M140 268L151.547 248H128.453L140 268ZM138 142.51V250H142V142.51H138Z" fill="white"/>
<path d="M140 261L145.774 251H134.226L140 261ZM139 143V252H141V143H139Z" fill="black"/>
<path d="M268 140L248 128.453V151.547L268 140ZM141.267 142H250V138H141.267V142Z" fill="white"/>
<path d="M261 140L251 134.226V145.774L261 140ZM141 141H252V139H141V141Z" fill="black"/>
<path d="M140 12L128.453 32H151.547L140 12ZM142 137.49L142 30H138L138 137.49H142Z" fill="white"/>
<path d="M140 19L134.226 29H145.774L140 19ZM141 137V28H139V137H141Z" fill="black"/>
<path d="M12 140L32 151.547V128.453L12 140ZM138.733 138L30 138V142L138.733 142V138Z" fill="white"/>
<path d="M18 140L28 145.774V134.226L18 140ZM139 139H27V141H139V139Z" fill="black"/>
<path d="M48.9771 229.322L71.4216 223.479L55.088 207.153L48.9771 229.322ZM134.784 142.351L60.4125 215.303L63.2416 218.131L137.613 145.179L134.784 142.351Z" fill="white"/>
<path d="M54 225L65.1704 222.077L57.0542 213.865L54 225ZM135.495 143.053L59.6982 217.963L61.104 219.385L136.901 144.476L135.495 143.053Z" fill="black"/>
<path d="M230.432 229.545L224.425 207.348L208.015 223.597L230.432 229.545ZM142.381 145.172L216.22 218.287L219.062 215.473L145.223 142.357L142.381 145.172Z" fill="white"/>
<path d="M226 225L222.945 213.865L214.829 222.077L226 225ZM143.099 144.476L218.896 219.385L220.301 217.962L144.505 143.054L143.099 144.476Z" fill="black"/>
<path d="M230.432 50.902L208 56.791L224.367 73.0831L230.432 50.902ZM145.219 137.646L219.026 64.9445L216.191 62.1226L142.384 134.824L145.219 137.646Z" fill="white"/>
<path d="M224.994 55.9941L213.824 58.9172L221.94 67.1294L224.994 55.9941ZM144.505 136.946L219.296 63.0316L217.89 61.6092L143.099 135.524L144.505 136.946Z" fill="black"/>
<path d="M50.0198 50.902L56.0264 73.0989L72.4365 56.8496L50.0198 50.902ZM137.619 134.828L64.2314 62.1598L61.3891 64.9743L134.777 137.643L137.619 134.828Z" fill="white"/>
<path d="M55 56L58.0556 67.1352L66.1708 58.9225L55 56ZM136.901 135.524L62.1047 61.6147L60.6991 63.0372L135.495 136.947L136.901 135.524Z" fill="black"/>
<circle cx="139.5" cy="139.5" r="76.5" stroke="black" stroke-width="2"/>
<path d="M217.574 139.373C217.574 182.127 182.569 216.804 139.366 216.804C96.164 216.804 61.1584 182.127 61.1584 139.373C61.1584 96.6176 96.164 61.9412 139.366 61.9412C182.569 61.9412 217.574 96.6176 217.574 139.373Z" stroke="white" stroke-width="2"/>
<circle cx="139.5" cy="139.5" r="74.5" stroke="white" stroke-width="2"/>
<rect x="132.707" y="140.121" width="10.4853" height="10.1421" transform="rotate(-45 132.707 140.121)" fill="black" stroke="white"/>
</svg>
