<svg width="260" height="269" viewBox="0 0 260 269" fill="none" xmlns="http://www.w3.org/2000/svg">
<path d="M214.312 44.7482L180.881 53.5577L205.19 78.2377L214.312 44.7482ZM131.659 131.137L197.268 65.9201L193.058 61.6454L127.449 126.863L131.659 131.137Z" fill="black"/>
<path d="M8 129L38 146.321V111.679L8 129ZM130 126L35 126V132H130V126Z" fill="black"/>
<path d="M129.554 8L112.233 38H146.874L129.554 8ZM132.554 129V35H126.554V129H132.554Z" fill="black"/>
<path d="M214.312 213.252L205.19 179.762L180.881 204.442L214.312 213.252ZM127.449 131.137L193.058 196.355L197.268 192.08L131.659 126.863L127.449 131.137Z" fill="black"/>
<path d="M44.7956 44.7482L54.0933 78.1895L78.2721 53.3826L44.7956 44.7482ZM132.54 126.852L66.1379 61.5339L61.95 65.8306L128.352 131.148L132.54 126.852Z" fill="black"/>
<path d="M44 214L77.4896 205.143L53.0744 180.569L44 214ZM127.439 126.872L61.0394 192.842L65.2682 197.098L131.668 131.128L127.439 126.872Z" fill="black"/>
<path d="M129.554 250L146.874 220H112.233L129.554 250ZM126.554 129V223H132.554V129H126.554Z" fill="black"/>
<path d="M250 129L220 111.679V146.321L250 129ZM129.554 132H223V126H129.554V132Z" fill="black"/>
<path d="M129.554 243.726L141.101 223.726H118.007L129.554 243.726ZM127.554 131.25V225.726H131.554V131.25H127.554Z" fill="white"/>
<path d="M129.554 237.452L135.327 227.452H123.78L129.554 237.452ZM128.554 131.689V228.452H130.554V131.689H128.554Z" fill="black"/>
<path d="M243.755 129L223.755 117.453V140.547L243.755 129ZM130.685 131H225.755V127H130.685V131Z" fill="white"/>
<path d="M237.509 129L227.509 123.226V134.774L237.509 129ZM130.446 130H228.509V128H130.446V130Z" fill="black"/>
<path d="M129.554 14.2741L118.007 34.2741H141.101L129.554 14.2741ZM131.554 126.75L131.554 32.2741H127.554L127.554 126.75H131.554Z" fill="white"/>
<path d="M129.554 20.5482L123.78 30.5482H135.327L129.554 20.5482ZM130.554 126.311V29.5482H128.554V126.311H130.554Z" fill="black"/>
<path d="M15.3532 129L35.3532 140.547V117.453L15.3532 129ZM128.423 127L33.3532 127V131L128.423 131V127Z" fill="white"/>
<path d="M20.7063 129L30.7063 134.774V123.226L20.7063 129ZM128.662 128H29.7063V130H128.662V128Z" fill="black"/>
<path d="M48.3439 209.059L70.7374 203.202L54.4414 186.839L48.3439 209.059ZM124.751 130.957L59.7536 195.007L62.5761 197.842L127.573 133.791L124.751 130.957Z" fill="white"/>
<path d="M52.8252 205.185L63.9701 202.255L55.8727 194.024L52.8252 205.185ZM125.46 131.661L58.5105 198.132L59.913 199.557L126.863 133.087L125.46 131.661Z" fill="black"/>
<path d="M210.236 209.259L204.244 187.011L187.871 203.298L210.236 209.259ZM131.528 133.785L196.057 197.975L198.893 195.154L134.364 130.964L131.528 133.785Z" fill="white"/>
<path d="M206.283 205.185L203.235 194.024L195.138 202.255L206.283 205.185ZM132.245 133.087L199.194 199.557L200.597 198.131L133.647 131.662L132.245 133.087Z" fill="black"/>
<path d="M210.236 49.1418L187.855 55.0447L204.185 71.3743L210.236 49.1418ZM134.36 127.04L198.856 63.2169L196.028 60.3886L131.532 124.212L134.36 127.04Z" fill="white"/>
<path d="M205.385 53.7058L194.24 56.6359L202.337 64.8668L205.385 53.7058ZM133.647 126.339L199.7 60.7596L198.297 59.334L132.245 124.913L133.647 126.339Z" fill="black"/>
<path d="M49.2742 49.1418L55.2671 71.3901L71.6399 55.1032L49.2742 49.1418ZM127.58 124.215L63.4535 60.4256L60.6176 63.2466L124.744 127.036L127.58 124.215Z" fill="white"/>
<path d="M53.7175 53.7111L56.7663 64.8719L64.8627 56.6406L53.7175 53.7111ZM126.863 124.913L60.806 59.3389L59.4036 60.7646L125.461 126.339L126.863 124.913Z" fill="black"/>
<path d="M197.253 128.552C197.253 166.367 166.739 197.015 129.108 197.015C91.4767 197.015 60.9628 166.367 60.9628 128.552C60.9628 90.7365 91.4767 60.0889 129.108 60.0889C166.739 60.0889 197.253 90.7365 197.253 128.552Z" stroke="black" stroke-width="2"/>
<circle cx="129" cy="128.5" r="70" stroke="white" stroke-width="2"/>
<path d="M195.468 128.552C195.468 165.377 165.753 195.222 129.108 195.222C92.4622 195.222 62.7473 165.377 62.7473 128.552C62.7473 91.7265 92.4622 61.8815 129.108 61.8815C165.753 61.8815 195.468 91.7265 195.468 128.552Z" stroke="white" stroke-width="2"/>
<rect x="0.705483" width="9.27068" height="8.96382" transform="matrix(0.705483 -0.708727 0.705483 0.708727 122.624 129.609)" fill="black" stroke="white"/>
</svg>
