<svg width="275" height="275" viewBox="0 0 275 275" fill="none" xmlns="http://www.w3.org/2000/svg">
<rect x="54" y="54" width="28" height="28" fill="white"/>
<rect x="82" y="54" width="28" height="28" fill="black"/>
<rect x="26" y="54" width="28" height="28" fill="black"/>
<rect x="110" y="54" width="28" height="28" fill="white"/>
<rect x="138" y="54" width="28" height="28" fill="black"/>
<rect x="166" y="54" width="28" height="28" fill="white"/>
<rect x="222" y="54" width="28" height="28" fill="white"/>
<rect x="194" y="54" width="28" height="28" fill="black"/>
<rect x="26" y="26" width="28" height="28" fill="white"/>
<rect x="26" y="26" width="28" height="28" fill="white"/>
<rect x="54" y="26" width="28" height="28" fill="black"/>
<rect x="82" y="26" width="28" height="28" fill="white"/>
<rect x="110" y="26" width="28" height="28" fill="black"/>
<rect x="138" y="26" width="28" height="28" fill="white"/>
<rect x="166" y="26" width="28" height="28" fill="black"/>
<rect x="194" y="26" width="28" height="28" fill="white"/>
<rect x="222" y="26" width="28" height="28" fill="black"/>
<rect x="54" y="166" width="28" height="28" fill="white"/>
<rect x="82" y="166" width="28" height="28" fill="black"/>
<rect x="26" y="166" width="28" height="28" fill="black"/>
<rect x="110" y="166" width="28" height="28" fill="white"/>
<rect x="138" y="166" width="28" height="28" fill="black"/>
<rect x="166" y="166" width="28" height="28" fill="white"/>
<rect x="222" y="166" width="28" height="28" fill="white"/>
<rect x="194" y="166" width="28" height="28" fill="black"/>
<rect x="26" y="138" width="28" height="28" fill="white"/>
<rect x="54" y="138" width="28" height="28" fill="black"/>
<rect x="82" y="138" width="28" height="28" fill="white"/>
<rect x="110" y="138" width="28" height="28" fill="black"/>
<rect x="138" y="138" width="28" height="28" fill="white"/>
<rect x="166" y="138" width="28" height="28" fill="black"/>
<rect x="194" y="138" width="28" height="28" fill="white"/>
<rect x="222" y="138" width="28" height="28" fill="black"/>
<rect x="54" y="222" width="28" height="28" fill="white"/>
<rect x="82" y="222" width="28" height="28" fill="black"/>
<rect x="26" y="222" width="28" height="28" fill="black"/>
<rect x="110" y="222" width="28" height="28" fill="white"/>
<rect x="138" y="222" width="28" height="28" fill="black"/>
<rect x="166" y="222" width="28" height="28" fill="white"/>
<rect x="222" y="222" width="28" height="28" fill="white"/>
<rect x="194" y="222" width="28" height="28" fill="black"/>
<rect x="26" y="194" width="28" height="28" fill="white"/>
<rect x="54" y="194" width="28" height="28" fill="black"/>
<rect x="82" y="194" width="28" height="28" fill="white"/>
<rect x="110" y="194" width="28" height="28" fill="black"/>
<rect x="138" y="194" width="28" height="28" fill="white"/>
<rect x="166" y="194" width="28" height="28" fill="black"/>
<rect x="194" y="194" width="28" height="28" fill="white"/>
<rect x="222" y="194" width="28" height="28" fill="black"/>
<rect x="54" y="110" width="28" height="28" fill="white"/>
<rect x="82" y="110" width="28" height="28" fill="black"/>
<rect x="26" y="110" width="28" height="28" fill="black"/>
<rect x="110" y="110" width="28" height="28" fill="white"/>
<rect x="138" y="110" width="28" height="28" fill="black"/>
<rect x="166" y="110" width="28" height="28" fill="white"/>
<rect x="222" y="110" width="28" height="28" fill="white"/>
<rect x="194" y="110" width="28" height="28" fill="black"/>
<rect x="26" y="82" width="28" height="28" fill="white"/>
<rect x="54" y="82" width="28" height="28" fill="black"/>
<rect x="82" y="82" width="28" height="28" fill="white"/>
<rect x="110" y="82" width="28" height="28" fill="black"/>
<rect x="138" y="82" width="28" height="28" fill="white"/>
<rect x="166" y="82" width="28" height="28" fill="black"/>
<rect x="194" y="82" width="28" height="28" fill="white"/>
<rect x="222" y="82" width="28" height="28" fill="black"/>
<rect x="26" y="26" width="28" height="28" fill="white"/>
</svg>
