<svg width="296" height="303" viewBox="0 0 296 303" fill="none" xmlns="http://www.w3.org/2000/svg">
<path d="M41.1164 225.532L42.1326 164.195L95.76 134.407L148.371 165.955L147.355 227.292L93.7276 257.081L41.1164 225.532Z" fill="#D9D9D9" stroke="black" stroke-width="2"/>
<path d="M96.1365 133.467L95.1012 195.958L40.4643 226.307" stroke="black" stroke-width="2"/>
<path d="M149.023 165.18L94.3865 195.53L93.3511 258.021" stroke="black" stroke-width="2"/>
<line x1="43.0148" y1="164.53" x2="147.002" y2="226.886" stroke="black" stroke-width="2"/>
<path d="M147.116 226.532L148.133 165.195L201.76 135.407L254.371 166.955L253.355 228.292L199.728 258.081L147.116 226.532Z" fill="#D9D9D9" stroke="black" stroke-width="2"/>
<path d="M202.136 134.467L201.101 196.958L146.464 227.307" stroke="black" stroke-width="2"/>
<path d="M255.023 166.18L200.386 196.53L199.351 259.021" stroke="black" stroke-width="2"/>
<line x1="149.015" y1="165.53" x2="253.002" y2="227.886" stroke="black" stroke-width="2"/>
<path d="M95.1164 133.532L96.1326 72.1953L149.76 42.4069L202.371 73.9555L201.355 135.292L147.728 165.081L95.1164 133.532Z" fill="#D9D9D9" stroke="black" stroke-width="2"/>
<path d="M150.136 41.4667L149.101 103.958L94.4643 134.307" stroke="black" stroke-width="2"/>
<path d="M203.023 73.1805L148.386 103.53L147.351 166.021" stroke="black" stroke-width="2"/>
<line x1="97.0148" y1="72.53" x2="201.002" y2="134.886" stroke="black" stroke-width="2"/>
</svg>
