<svg width="250" height="250" viewBox="0 0 250 250" fill="none" xmlns="http://www.w3.org/2000/svg">
<g clip-path="url(#clip0_628_2)">
<path d="M128.673 154.172C127.111 152.609 124.578 152.609 123.016 154.172L110.5 167C108.938 168.563 108.938 170.938 110.5 172.5C112.062 174.062 114.938 173.562 116.5 172L125.845 162.657L136.5 172.5C138.062 174.062 139.438 174.062 141 172.5C142.562 170.938 142.562 169.062 141 167.5L128.673 154.172ZM129.844 215V157H121.845V215H129.844Z" fill="black"/>
<path d="M105.454 124.881C107.597 124.345 108.9 122.173 108.364 120.03L103.5 102.5C102.964 100.357 101.143 98.9642 99 99.5C96.8569 100.036 95.9642 101.357 96.5 103.5L99.6331 118.09L85.5 122C83.3568 122.536 82.4642 124.357 83 126.5C83.5358 128.643 86.3568 129.536 88.5 129L105.454 124.881ZM57.4258 97.43L102.426 124.43L106.542 117.57L61.5417 90.57L57.4258 97.43Z" fill="black"/>
<path d="M143.494 120.715C143.336 122.918 144.995 124.832 147.199 124.99L167 126C169.204 126.157 169.343 124.703 169.5 122.5C169.657 120.296 169.704 118.657 167.5 118.5L151.759 117.295L152.5 102C152.658 99.7965 151.203 98.6575 149 98.5C146.796 98.3426 145.022 99.7964 144.864 102L143.494 120.715ZM186.404 81.9772L144.864 117.977L150.103 124.023L191.644 88.0228L186.404 81.9772Z" fill="black"/>
<path d="M127.259 155.586C126.478 154.805 125.211 154.805 124.43 155.586L111.702 168.314C110.921 169.095 110.921 170.361 111.702 171.142C112.483 171.923 113.75 171.923 114.531 171.142L125.844 159.828L137.158 171.142C137.939 171.923 139.206 171.923 139.987 171.142C140.768 170.361 140.768 169.095 139.987 168.314L127.259 155.586ZM127.844 215V157H123.844V215H127.844Z" fill="white"/>
<path d="M104.969 122.94C106.04 122.672 106.692 121.587 106.424 120.515L102.058 103.052C101.791 101.981 100.705 101.329 99.6331 101.597C98.5615 101.865 97.9099 102.951 98.1778 104.023L102.058 119.545L86.5361 123.425C85.4646 123.693 84.813 124.779 85.0809 125.851C85.3488 126.922 86.4347 127.574 87.5063 127.306L104.969 122.94ZM58.4548 95.715L103.455 122.715L105.513 119.285L60.5128 92.285L58.4548 95.715Z" fill="white"/>
<path d="M145.489 120.857C145.41 121.959 146.24 122.916 147.341 122.995L165.295 124.278C166.397 124.356 167.354 123.527 167.433 122.425C167.512 121.324 166.682 120.367 165.581 120.288L149.621 119.148L150.762 103.188C150.84 102.086 150.011 101.13 148.909 101.051C147.807 100.972 146.85 101.801 146.772 102.903L145.489 120.857ZM187.714 83.4886L146.174 119.489L148.794 122.511L190.334 86.5114L187.714 83.4886Z" fill="white"/>
<path d="M129.38 37.4645C127.427 35.5118 124.262 35.5118 122.309 37.4645L107 54C105 56 104.547 58.0474 106.5 60C108.453 61.9527 110.547 61.9527 112.5 60L125.845 48.0711L138.5 60.5C140.452 62.4527 143.047 62.4527 145 60.5C146.952 58.5474 146.952 55.9526 145 54L129.38 37.4645ZM130.845 134V41H120.845V134H130.845Z" fill="black"/>
<path d="M49.019 192.717C48.7783 195.468 50.8133 197.893 53.5642 198.134L76.5 199.5C79.2509 199.741 80.7593 198.751 81 196C81.2407 193.249 81 192 78.5 191L59.4167 188.608L60.5 170C60.7406 167.249 59.2509 165.741 56.5 165.5C53.7491 165.26 51.7407 166.25 51.5 169L49.019 192.717ZM122.028 129.544L50.7861 189.323L57.2139 196.983L128.456 137.204L122.028 129.544Z" fill="black"/>
<path d="M197.162 197.76C199.913 197.519 201.947 195.094 201.707 192.343L199.5 168C199.259 165.249 196.751 165.259 194 165.5C191.249 165.74 189.759 167.249 190 170L191.309 188.234L173.5 190.5C170.749 190.741 169.759 192.749 170 195.5C170.241 198.251 172.749 199.241 175.5 199L197.162 197.76ZM122.27 136.83L193.512 196.609L199.94 188.949L128.698 129.17L122.27 136.83Z" fill="black"/>
<path d="M51.5095 192.935C51.3891 194.311 52.4066 195.523 53.7821 195.643L76.1965 197.604C77.5719 197.725 78.7845 196.707 78.9048 195.332C79.0252 193.956 78.0077 192.744 76.6322 192.624L56.7083 190.88L58.4515 170.957C58.5718 169.581 57.5543 168.368 56.1789 168.248C54.8034 168.128 53.5908 169.145 53.4705 170.521L51.5095 192.935ZM123.635 131.459L52.393 191.238L55.6069 195.068L126.849 135.289L123.635 131.459Z" fill="white"/>
<path d="M196.944 195.27C198.319 195.149 199.337 193.937 199.216 192.561L197.255 170.147C197.135 168.771 195.922 167.754 194.547 167.874C193.171 167.995 192.154 169.207 192.274 170.583L194.017 190.507L174.094 192.25C172.718 192.37 171.701 193.583 171.821 194.958C171.941 196.334 173.154 197.351 174.529 197.231L196.944 195.27ZM123.877 134.915L195.119 194.694L198.333 190.864L127.091 131.085L123.877 134.915Z" fill="white"/>
<path d="M127.612 39.2322C126.636 38.2559 125.053 38.2559 124.077 39.2322L108.167 55.1421C107.19 56.1185 107.19 57.7014 108.167 58.6777C109.143 59.654 110.726 59.654 111.702 58.6777L125.844 44.5355L139.987 58.6777C140.963 59.654 142.546 59.654 143.522 58.6777C144.498 57.7014 144.498 56.1185 143.522 55.1421L127.612 39.2322ZM128.344 134V41H123.344V134H128.344Z" fill="white"/>
</g>
<defs>
<clipPath id="clip0_628_2">
<rect width="153" height="179" fill="white" transform="translate(49 36)"/>
</clipPath>
</defs>
</svg>
