<svg width="250" height="250" viewBox="0 0 250 250" fill="none" xmlns="http://www.w3.org/2000/svg">
<mask id="path-1-outside-1_628_2" maskUnits="userSpaceOnUse" x="43" y="31" width="164" height="197" fill="black">
<rect fill="white" x="43" y="31" width="164" height="197"/>
<path d="M128.849 159.667C127.192 158.054 124.505 158.054 122.848 159.667L109.571 172.909C107.914 174.522 107.914 176.974 109.571 178.586C111.228 180.199 114.279 179.682 115.936 178.07L125.849 168.426L137.152 178.586C138.809 180.199 140.269 180.199 141.926 178.586C143.583 176.974 143.583 175.037 141.926 173.425L128.849 159.667ZM130.092 222.457L129 163.5H122L121.606 222.457H130.092Z"/>
<path d="M106.336 126.031C108.563 125.462 109.917 123.154 109.361 120.876L104.306 102.248C103.749 99.9702 101.857 98.4903 99.6294 99.0597C97.4023 99.6291 96.4746 101.033 97.0314 103.31L100.287 118.814L85.6003 122.97C83.3731 123.539 82.4455 125.474 83.0023 127.752C83.5591 130.029 86.4907 130.978 88.7179 130.409L106.336 126.031ZM56.4258 96.86L102.788 124.274L106.336 118.116L60.703 89.57L56.4258 96.86Z"/>
<path d="M143 122.645C142.836 124.949 144.564 126.949 146.859 127.114L167.482 128.17C169.778 128.334 169.922 126.815 170.086 124.511C170.249 122.208 170.298 120.494 168.003 120.33L151.608 119.071L152.38 103.082C152.545 100.779 151.029 99.5882 148.735 99.4236C146.439 99.259 144.591 100.779 144.427 103.082L143 122.645ZM187.692 82.152L145.506 120.175L150.006 125.175L193.149 88.4716L187.692 82.152Z"/>
<path d="M105.578 122.907C106.605 122.654 107.229 121.63 106.972 120.62L102.788 104.153C102.532 103.143 101.491 102.528 100.464 102.781C99.437 103.034 98.8126 104.057 99.0693 105.068L102.788 119.705L87.9123 123.364C86.8854 123.617 86.2609 124.641 86.5177 125.651C86.7744 126.662 87.8151 127.276 88.8421 127.023L105.578 122.907ZM59.5 96.5L104.127 122.694L106.099 119.46L61.5 93L59.5 96.5Z"/>
<path d="M129.552 37.4944C127.505 35.5019 124.185 35.5019 122.138 37.4944L106.085 54.3673C103.988 56.4082 103.513 58.4973 105.561 60.4898C107.608 62.4823 109.805 62.4823 111.852 60.4898L125.845 48.3174L139.116 61C141.162 62.9926 143.883 62.9926 145.931 61C147.978 59.0076 147.978 56.3598 145.931 54.3673L129.552 37.4944ZM131.088 136L130.25 42H121.409L120.602 136H131.088Z"/>
<path d="M49.0203 193.783C48.7675 196.691 50.905 199.254 53.7945 199.509L77.886 200.953C80.7755 201.208 82.3599 200.161 82.6128 197.253C82.8656 194.345 82.6128 193.025 79.9868 191.967L59.9419 189.439L61.0798 169.768C61.3325 166.86 59.7678 165.265 56.8782 165.011C53.9887 164.757 51.8791 165.803 51.6263 168.711L49.0203 193.783ZM125.708 127L52 190L58 197.253L132.46 135.098L125.708 127Z"/>
<path d="M197.05 198.728C199.871 198.48 201.956 195.986 201.71 193.156L199.447 168.114C199.2 165.284 196.629 165.295 193.809 165.543C190.988 165.789 189.461 167.342 189.708 170.172L191.05 188.929L172.792 191.26C169.972 191.508 168.957 193.574 169.204 196.403C169.45 199.233 172.022 200.252 174.842 200.004L197.05 198.728ZM120.27 136.05L193 196.403L198.358 189.5L126.86 128.17L120.27 136.05Z"/>
<path d="M52.5092 193.081C52.3921 194.416 53.3826 195.591 54.7215 195.707L76.5412 197.609C77.8801 197.727 79.0605 196.739 79.1776 195.406C79.2948 194.071 78.3043 192.896 76.9653 192.779L57.5701 191.088L59.267 171.766C59.3841 170.431 58.3937 169.255 57.0547 169.139C55.7157 169.022 54.5353 170.008 54.4182 171.343L52.5092 193.081ZM123.5 132L53.3693 191.435L56.498 195.15L127 135.5L123.5 132Z"/>
<path d="M197.006 195.334C198.344 195.216 199.335 194.041 199.217 192.706L197.308 170.969C197.192 169.634 196.011 168.648 194.672 168.764C193.333 168.882 192.343 170.057 192.459 171.391L194.156 190.714L174.762 192.405C173.422 192.521 172.432 193.698 172.549 195.031C172.666 196.366 173.847 197.352 175.185 197.236L197.006 195.334ZM125 136L195.229 194.775L198.358 191.061L128.5 132.5L125 136Z"/>
<path d="M127.516 39.2169C126.593 38.261 125.096 38.261 124.173 39.2169L108 55.5C107.077 56.456 106.577 57.5441 107.5 58.5C108.423 59.4559 110.077 59.4559 111 58.5L125.845 44.4091L141 59C141.923 59.9559 143.577 60.4559 144.5 59.5C145.423 58.5441 144.923 56.956 144 56L127.516 39.2169ZM128.741 135.74L128.209 40.9476H123.48V135.74H128.741Z"/>
</mask>
<path d="M128.849 159.667C127.192 158.054 124.505 158.054 122.848 159.667L109.571 172.909C107.914 174.522 107.914 176.974 109.571 178.586C111.228 180.199 114.279 179.682 115.936 178.07L125.849 168.426L137.152 178.586C138.809 180.199 140.269 180.199 141.926 178.586C143.583 176.974 143.583 175.037 141.926 173.425L128.849 159.667ZM130.092 222.457L129 163.5H122L121.606 222.457H130.092Z" fill="white"/>
<path d="M106.336 126.031C108.563 125.462 109.917 123.154 109.361 120.876L104.306 102.248C103.749 99.9702 101.857 98.4903 99.6294 99.0597C97.4023 99.6291 96.4746 101.033 97.0314 103.31L100.287 118.814L85.6003 122.97C83.3731 123.539 82.4455 125.474 83.0023 127.752C83.5591 130.029 86.4907 130.978 88.7179 130.409L106.336 126.031ZM56.4258 96.86L102.788 124.274L106.336 118.116L60.703 89.57L56.4258 96.86Z" fill="white"/>
<path d="M143 122.645C142.836 124.949 144.564 126.949 146.859 127.114L167.482 128.17C169.778 128.334 169.922 126.815 170.086 124.511C170.249 122.208 170.298 120.494 168.003 120.33L151.608 119.071L152.38 103.082C152.545 100.779 151.029 99.5882 148.735 99.4236C146.439 99.259 144.591 100.779 144.427 103.082L143 122.645ZM187.692 82.152L145.506 120.175L150.006 125.175L193.149 88.4716L187.692 82.152Z" fill="white"/>
<path d="M105.578 122.907C106.605 122.654 107.229 121.63 106.972 120.62L102.788 104.153C102.532 103.143 101.491 102.528 100.464 102.781C99.437 103.034 98.8126 104.057 99.0693 105.068L102.788 119.705L87.9123 123.364C86.8854 123.617 86.2609 124.641 86.5177 125.651C86.7744 126.662 87.8151 127.276 88.8421 127.023L105.578 122.907ZM59.5 96.5L104.127 122.694L106.099 119.46L61.5 93L59.5 96.5Z" fill="white"/>
<path d="M129.552 37.4944C127.505 35.5019 124.185 35.5019 122.138 37.4944L106.085 54.3673C103.988 56.4082 103.513 58.4973 105.561 60.4898C107.608 62.4823 109.805 62.4823 111.852 60.4898L125.845 48.3174L139.116 61C141.162 62.9926 143.883 62.9926 145.931 61C147.978 59.0076 147.978 56.3598 145.931 54.3673L129.552 37.4944ZM131.088 136L130.25 42H121.409L120.602 136H131.088Z" fill="white"/>
<path d="M49.0203 193.783C48.7675 196.691 50.905 199.254 53.7945 199.509L77.886 200.953C80.7755 201.208 82.3599 200.161 82.6128 197.253C82.8656 194.345 82.6128 193.025 79.9868 191.967L59.9419 189.439L61.0798 169.768C61.3325 166.86 59.7678 165.265 56.8782 165.011C53.9887 164.757 51.8791 165.803 51.6263 168.711L49.0203 193.783ZM125.708 127L52 190L58 197.253L132.46 135.098L125.708 127Z" fill="white"/>
<path d="M197.05 198.728C199.871 198.48 201.956 195.986 201.71 193.156L199.447 168.114C199.2 165.284 196.629 165.295 193.809 165.543C190.988 165.789 189.461 167.342 189.708 170.172L191.05 188.929L172.792 191.26C169.972 191.508 168.957 193.574 169.204 196.403C169.45 199.233 172.022 200.252 174.842 200.004L197.05 198.728ZM120.27 136.05L193 196.403L198.358 189.5L126.86 128.17L120.27 136.05Z" fill="white"/>
<path d="M52.5092 193.081C52.3921 194.416 53.3826 195.591 54.7215 195.707L76.5412 197.609C77.8801 197.727 79.0605 196.739 79.1776 195.406C79.2948 194.071 78.3043 192.896 76.9653 192.779L57.5701 191.088L59.267 171.766C59.3841 170.431 58.3937 169.255 57.0547 169.139C55.7157 169.022 54.5353 170.008 54.4182 171.343L52.5092 193.081ZM123.5 132L53.3693 191.435L56.498 195.15L127 135.5L123.5 132Z" fill="white"/>
<path d="M197.006 195.334C198.344 195.216 199.335 194.041 199.217 192.706L197.308 170.969C197.192 169.634 196.011 168.648 194.672 168.764C193.333 168.882 192.343 170.057 192.459 171.391L194.156 190.714L174.762 192.405C173.422 192.521 172.432 193.698 172.549 195.031C172.666 196.366 173.847 197.352 175.185 197.236L197.006 195.334ZM125 136L195.229 194.775L198.358 191.061L128.5 132.5L125 136Z" fill="white"/>
<path d="M127.516 39.2169C126.593 38.261 125.096 38.261 124.173 39.2169L108 55.5C107.077 56.456 106.577 57.5441 107.5 58.5C108.423 59.4559 110.077 59.4559 111 58.5L125.845 44.4091L141 59C141.923 59.9559 143.577 60.4559 144.5 59.5C145.423 58.5441 144.923 56.956 144 56L127.516 39.2169ZM128.741 135.74L128.209 40.9476H123.48V135.74H128.741Z" fill="white"/>
<path d="M128.849 159.667C127.192 158.054 124.505 158.054 122.848 159.667L109.571 172.909C107.914 174.522 107.914 176.974 109.571 178.586C111.228 180.199 114.279 179.682 115.936 178.07L125.849 168.426L137.152 178.586C138.809 180.199 140.269 180.199 141.926 178.586C143.583 176.974 143.583 175.037 141.926 173.425L128.849 159.667ZM130.092 222.457L129 163.5H122L121.606 222.457H130.092Z" stroke="white" stroke-width="10" mask="url(#path-1-outside-1_628_2)"/>
<path d="M106.336 126.031C108.563 125.462 109.917 123.154 109.361 120.876L104.306 102.248C103.749 99.9702 101.857 98.4903 99.6294 99.0597C97.4023 99.6291 96.4746 101.033 97.0314 103.31L100.287 118.814L85.6003 122.97C83.3731 123.539 82.4455 125.474 83.0023 127.752C83.5591 130.029 86.4907 130.978 88.7179 130.409L106.336 126.031ZM56.4258 96.86L102.788 124.274L106.336 118.116L60.703 89.57L56.4258 96.86Z" stroke="white" stroke-width="10" mask="url(#path-1-outside-1_628_2)"/>
<path d="M143 122.645C142.836 124.949 144.564 126.949 146.859 127.114L167.482 128.17C169.778 128.334 169.922 126.815 170.086 124.511C170.249 122.208 170.298 120.494 168.003 120.33L151.608 119.071L152.38 103.082C152.545 100.779 151.029 99.5882 148.735 99.4236C146.439 99.259 144.591 100.779 144.427 103.082L143 122.645ZM187.692 82.152L145.506 120.175L150.006 125.175L193.149 88.4716L187.692 82.152Z" stroke="white" stroke-width="10" mask="url(#path-1-outside-1_628_2)"/>
<path d="M105.578 122.907C106.605 122.654 107.229 121.63 106.972 120.62L102.788 104.153C102.532 103.143 101.491 102.528 100.464 102.781C99.437 103.034 98.8126 104.057 99.0693 105.068L102.788 119.705L87.9123 123.364C86.8854 123.617 86.2609 124.641 86.5177 125.651C86.7744 126.662 87.8151 127.276 88.8421 127.023L105.578 122.907ZM59.5 96.5L104.127 122.694L106.099 119.46L61.5 93L59.5 96.5Z" stroke="white" stroke-width="10" mask="url(#path-1-outside-1_628_2)"/>
<path d="M129.552 37.4944C127.505 35.5019 124.185 35.5019 122.138 37.4944L106.085 54.3673C103.988 56.4082 103.513 58.4973 105.561 60.4898C107.608 62.4823 109.805 62.4823 111.852 60.4898L125.845 48.3174L139.116 61C141.162 62.9926 143.883 62.9926 145.931 61C147.978 59.0076 147.978 56.3598 145.931 54.3673L129.552 37.4944ZM131.088 136L130.25 42H121.409L120.602 136H131.088Z" stroke="white" stroke-width="10" mask="url(#path-1-outside-1_628_2)"/>
<path d="M49.0203 193.783C48.7675 196.691 50.905 199.254 53.7945 199.509L77.886 200.953C80.7755 201.208 82.3599 200.161 82.6128 197.253C82.8656 194.345 82.6128 193.025 79.9868 191.967L59.9419 189.439L61.0798 169.768C61.3325 166.86 59.7678 165.265 56.8782 165.011C53.9887 164.757 51.8791 165.803 51.6263 168.711L49.0203 193.783ZM125.708 127L52 190L58 197.253L132.46 135.098L125.708 127Z" stroke="white" stroke-width="10" mask="url(#path-1-outside-1_628_2)"/>
<path d="M197.05 198.728C199.871 198.48 201.956 195.986 201.71 193.156L199.447 168.114C199.2 165.284 196.629 165.295 193.809 165.543C190.988 165.789 189.461 167.342 189.708 170.172L191.05 188.929L172.792 191.26C169.972 191.508 168.957 193.574 169.204 196.403C169.45 199.233 172.022 200.252 174.842 200.004L197.05 198.728ZM120.27 136.05L193 196.403L198.358 189.5L126.86 128.17L120.27 136.05Z" stroke="white" stroke-width="10" mask="url(#path-1-outside-1_628_2)"/>
<path d="M52.5092 193.081C52.3921 194.416 53.3826 195.591 54.7215 195.707L76.5412 197.609C77.8801 197.727 79.0605 196.739 79.1776 195.406C79.2948 194.071 78.3043 192.896 76.9653 192.779L57.5701 191.088L59.267 171.766C59.3841 170.431 58.3937 169.255 57.0547 169.139C55.7157 169.022 54.5353 170.008 54.4182 171.343L52.5092 193.081ZM123.5 132L53.3693 191.435L56.498 195.15L127 135.5L123.5 132Z" stroke="white" stroke-width="10" mask="url(#path-1-outside-1_628_2)"/>
<path d="M197.006 195.334C198.344 195.216 199.335 194.041 199.217 192.706L197.308 170.969C197.192 169.634 196.011 168.648 194.672 168.764C193.333 168.882 192.343 170.057 192.459 171.391L194.156 190.714L174.762 192.405C173.422 192.521 172.432 193.698 172.549 195.031C172.666 196.366 173.847 197.352 175.185 197.236L197.006 195.334ZM125 136L195.229 194.775L198.358 191.061L128.5 132.5L125 136Z" stroke="white" stroke-width="10" mask="url(#path-1-outside-1_628_2)"/>
<path d="M127.516 39.2169C126.593 38.261 125.096 38.261 124.173 39.2169L108 55.5C107.077 56.456 106.577 57.5441 107.5 58.5C108.423 59.4559 110.077 59.4559 111 58.5L125.845 44.4091L141 59C141.923 59.9559 143.577 60.4559 144.5 59.5C145.423 58.5441 144.923 56.956 144 56L127.516 39.2169ZM128.741 135.74L128.209 40.9476H123.48V135.74H128.741Z" stroke="white" stroke-width="10" mask="url(#path-1-outside-1_628_2)"/>
<path d="M128.849 159.938C127.192 158.325 124.505 158.325 122.848 159.938L109.571 173.18C107.914 174.793 107.914 177.245 109.571 178.857C111.228 180.469 114.279 179.953 115.936 178.341L125.849 168.697L137.152 178.857C138.809 180.469 140.269 180.469 141.926 178.857C143.583 177.245 143.583 175.308 141.926 173.696L128.849 159.938ZM130.092 222.728V162.857H121.605V222.728H130.092Z" fill="black"/>
<path d="M106.336 126.031C108.563 125.462 109.917 123.154 109.361 120.876L104.306 102.248C103.749 99.9702 101.857 98.4903 99.6294 99.0597C97.4023 99.6291 96.4746 101.033 97.0314 103.31L100.287 118.814L85.6003 122.97C83.3731 123.539 82.4455 125.474 83.0023 127.752C83.5591 130.029 86.4907 130.978 88.7179 130.409L106.336 126.031ZM56.4258 96.86L103.189 125.552L107.467 118.262L60.703 89.57L56.4258 96.86Z" fill="black"/>
<path d="M142.351 122.993C142.187 125.297 143.914 127.297 146.209 127.462L166.833 128.518C169.128 128.682 169.273 127.163 169.437 124.859C169.6 122.556 169.649 120.842 167.354 120.678L150.959 119.419L151.731 103.43C151.895 101.127 150.38 99.9362 148.085 99.7716C145.79 99.607 143.942 101.127 143.778 103.43L142.351 122.993ZM187.042 82.5C170.147 97.196 160.674 105.435 143.778 120.131L149.234 126.451L192.5 88.8196L187.042 82.5Z" fill="black"/>
<path d="M105.578 122.907C106.605 122.654 107.229 121.63 106.972 120.62L102.788 104.153C102.532 103.143 101.491 102.528 100.464 102.781C99.437 103.034 98.8126 104.057 99.0693 105.068L102.788 119.705L87.9123 123.364C86.8854 123.617 86.2609 124.641 86.5177 125.651C86.7744 126.662 87.8151 127.276 88.8421 127.023L105.578 122.907ZM59.5 96.5L104.127 122.694L106.099 119.46L61.5 93L59.5 96.5Z" fill="black"/>
<path d="M129.552 37.4944C127.505 35.5019 124.185 35.5019 122.138 37.4944L106.085 54.3673C103.988 56.4082 103.513 58.4973 105.561 60.4898C107.608 62.4823 109.805 62.4823 111.852 60.4898L125.845 48.3174L139.116 61C141.162 62.9926 143.883 62.9926 145.931 61C147.978 59.0076 147.978 56.3598 145.931 54.3673L129.552 37.4944ZM131.088 136V41.102H120.602V136H131.088Z" fill="black"/>
<path d="M49.0203 193.783C48.7675 196.691 50.905 199.254 53.7945 199.509L77.886 200.953C80.7755 201.208 82.3599 200.161 82.6128 197.253C82.8656 194.345 82.6128 193.025 79.9868 191.967L59.9419 189.439L61.0798 169.768C61.3325 166.86 59.7678 165.265 56.8782 165.011C53.9887 164.757 51.8791 165.803 51.6263 168.711L49.0203 193.783ZM125.708 127L50.8764 190.195L57.6281 198.292L132.46 135.098L125.708 127Z" fill="black"/>
<path d="M197.05 198.728C199.871 198.48 201.956 195.986 201.71 193.156L199.447 168.114C199.2 165.284 196.629 165.295 193.809 165.543C190.988 165.789 189.461 167.342 189.708 170.172L191.05 188.929L172.792 191.26C169.972 191.508 168.957 193.574 169.204 196.403C169.45 199.233 172.022 200.252 174.842 200.004L197.05 198.728ZM120.27 136.05L193.308 197.544L199.899 189.664L126.86 128.17L120.27 136.05Z" fill="black"/>
<path d="M52.5092 193.081C52.3921 194.416 53.3826 195.591 54.7215 195.707L76.5412 197.609C77.8801 197.727 79.0605 196.739 79.1776 195.406C79.2948 194.071 78.3043 192.896 76.9653 192.779L57.5701 191.088L59.267 171.766C59.3841 170.431 58.3937 169.255 57.0547 169.139C55.7157 169.022 54.5353 170.008 54.4182 171.343L52.5092 193.081ZM123.5 132L53.3693 191.435L56.498 195.15L127 135.5L123.5 132Z" fill="black"/>
<path d="M197.006 195.334C198.344 195.216 199.335 194.041 199.217 192.706L197.308 170.969C197.192 169.634 196.011 168.648 194.672 168.764C193.333 168.882 192.343 170.057 192.459 171.391L194.156 190.714L174.762 192.405C173.422 192.521 172.432 193.698 172.549 195.031C172.666 196.366 173.847 197.352 175.185 197.236L197.006 195.334ZM125 136L195.229 194.775L198.358 191.061L128.5 132.5L125 136Z" fill="black"/>
<path d="M127.516 39.2169C126.593 38.261 125.096 38.261 124.173 39.2169L108 55.5C107.077 56.456 106.577 57.5441 107.5 58.5C108.423 59.4559 110.077 59.4559 111 58.5L125.845 44.4091L141 59C141.923 59.9559 143.577 60.4559 144.5 59.5C145.423 58.5441 144.923 56.956 144 56L127.516 39.2169ZM128.741 135.74L128.209 40.9476H123.48V135.74H128.741Z" fill="black"/>
</svg>
