<svg width="275" height="275" viewBox="0 0 275 275" fill="none" xmlns="http://www.w3.org/2000/svg">
<mask id="path-1-inside-1_409_3" fill="white">
<path fill-rule="evenodd" clip-rule="evenodd" d="M250 136.219C250 73.1374 199.632 22 137.5 22C75.368 22 25 73.1374 25 136.219C25 189.668 61.1612 234.543 110 247V188.507C92.1262 178.956 80 160.384 80 139.038C80 107.936 105.744 82.7225 137.5 82.7225C169.256 82.7225 195 107.936 195 139.038C195 160.384 182.874 178.956 165 188.507V247C213.839 234.543 250 189.668 250 136.219Z"/>
</mask>
<path fill-rule="evenodd" clip-rule="evenodd" d="M250 136.219C250 73.1374 199.632 22 137.5 22C75.368 22 25 73.1374 25 136.219C25 189.668 61.1612 234.543 110 247V188.507C92.1262 178.956 80 160.384 80 139.038C80 107.936 105.744 82.7225 137.5 82.7225C169.256 82.7225 195 107.936 195 139.038C195 160.384 182.874 178.956 165 188.507V247C213.839 234.543 250 189.668 250 136.219Z" fill="white"/>
<path d="M110 247L108.517 252.814L116 254.723V247H110ZM110 188.507H116V184.91L112.828 183.215L110 188.507ZM165 188.507L162.172 183.215L159 184.91V188.507H165ZM165 247H159V254.723L166.483 252.814L165 247ZM137.5 28C196.233 28 244 76.365 244 136.219H256C256 69.9097 203.031 16 137.5 16V28ZM31 136.219C31 76.365 78.7671 28 137.5 28V16C71.9688 16 19 69.9097 19 136.219H31ZM111.483 241.186C65.2927 229.404 31 186.916 31 136.219H19C19 192.42 57.0296 239.681 108.517 252.814L111.483 241.186ZM104 188.507V247H116V188.507H104ZM74 139.038C74 162.73 87.465 183.268 107.172 193.799L112.828 183.215C96.7874 174.644 86 158.037 86 139.038H74ZM137.5 76.7225C102.548 76.7225 74 104.505 74 139.038H86C86 111.366 108.939 88.7225 137.5 88.7225V76.7225ZM201 139.038C201 104.505 172.452 76.7225 137.5 76.7225V88.7225C166.061 88.7225 189 111.366 189 139.038H201ZM167.828 193.799C187.535 183.268 201 162.73 201 139.038H189C189 158.037 178.213 174.644 162.172 183.215L167.828 193.799ZM171 247V188.507H159V247H171ZM244 136.219C244 186.916 209.707 229.404 163.517 241.186L166.483 252.814C217.97 239.681 256 192.42 256 136.219H244Z" fill="black" mask="url(#path-1-inside-1_409_3)"/>
<mask id="path-3-inside-2_409_3" fill="white">
<path d="M137.5 95C160.972 95 180 114.028 180 137.5C180 160.972 160.972 180 137.5 180C114.028 180 95 160.972 95 137.5C95 114.028 114.028 95 137.5 95Z"/>
</mask>
<path d="M137.5 95C160.972 95 180 114.028 180 137.5C180 160.972 160.972 180 137.5 180C114.028 180 95 160.972 95 137.5C95 114.028 114.028 95 137.5 95Z" fill="white"/>
<path d="M137.5 101C157.658 101 174 117.342 174 137.5H186C186 110.714 164.286 89 137.5 89V101ZM174 137.5C174 157.658 157.658 174 137.5 174V186C164.286 186 186 164.286 186 137.5H174ZM137.5 174C117.342 174 101 157.658 101 137.5H89C89 164.286 110.714 186 137.5 186V174ZM101 137.5C101 117.342 117.342 101 137.5 101V89C110.714 89 89 110.714 89 137.5H101Z" fill="black" mask="url(#path-3-inside-2_409_3)"/>
</svg>
