<svg width="300" height="300" viewBox="0 0 300 300" fill="none" xmlns="http://www.w3.org/2000/svg">
<mask id="path-1-inside-1_402_14" fill="white">
<path fill-rule="evenodd" clip-rule="evenodd" d="M150 246C220.14 246 277 203.243 277 150.5C277 97.7568 220.14 55 150 55C79.8598 55 23 97.7568 23 150.5C23 203.243 79.8598 246 150 246ZM150 212.135C202.949 212.135 245.873 184.54 245.873 150.5C245.873 116.46 202.949 88.8652 150 88.8652C97.0511 88.8652 54.1275 116.46 54.1275 150.5C54.1275 184.54 97.0511 212.135 150 212.135Z"/>
</mask>
<path fill-rule="evenodd" clip-rule="evenodd" d="M150 246C220.14 246 277 203.243 277 150.5C277 97.7568 220.14 55 150 55C79.8598 55 23 97.7568 23 150.5C23 203.243 79.8598 246 150 246ZM150 212.135C202.949 212.135 245.873 184.54 245.873 150.5C245.873 116.46 202.949 88.8652 150 88.8652C97.0511 88.8652 54.1275 116.46 54.1275 150.5C54.1275 184.54 97.0511 212.135 150 212.135Z" fill="white"/>
<path d="M270 150.5C270 174.182 257.251 196.15 235.596 212.434C213.937 228.72 183.698 239 150 239V253C186.443 253 219.703 241.901 244.01 223.623C268.319 205.344 284 179.561 284 150.5H270ZM150 62C183.698 62 213.937 72.2796 235.596 88.566C257.251 104.85 270 126.818 270 150.5H284C284 121.439 268.319 95.6564 244.01 77.3766C219.703 59.0988 186.443 48 150 48V62ZM30 150.5C30 126.818 42.7489 104.85 64.4045 88.566C86.0629 72.2796 116.302 62 150 62V48C113.557 48 80.2969 59.0988 55.9904 77.3766C31.6811 95.6564 16 121.439 16 150.5H30ZM150 239C116.302 239 86.0629 228.72 64.4045 212.434C42.7489 196.15 30 174.182 30 150.5H16C16 179.561 31.6811 205.344 55.9904 223.623C80.2969 241.901 113.557 253 150 253V239ZM238.873 150.5C238.873 164.331 230.143 177.821 214.007 188.194C197.946 198.519 175.335 205.135 150 205.135V219.135C177.614 219.135 202.939 211.953 221.578 199.971C240.141 188.037 252.873 170.709 252.873 150.5H238.873ZM150 95.8652C175.335 95.8652 197.946 102.481 214.007 112.806C230.143 123.179 238.873 136.669 238.873 150.5H252.873C252.873 130.291 240.141 112.963 221.578 101.029C202.939 89.0474 177.614 81.8652 150 81.8652V95.8652ZM61.1275 150.5C61.1275 136.669 69.8575 123.179 85.9933 112.806C102.054 102.481 124.665 95.8652 150 95.8652V81.8652C122.386 81.8652 97.0605 89.0474 78.4225 101.029C59.8592 112.963 47.1275 130.291 47.1275 150.5H61.1275ZM150 205.135C124.665 205.135 102.054 198.519 85.9933 188.194C69.8575 177.821 61.1275 164.331 61.1275 150.5H47.1275C47.1275 170.709 59.8592 188.037 78.4225 199.971C97.0605 211.953 122.386 219.135 150 219.135V205.135Z" fill="black" mask="url(#path-1-inside-1_402_14)"/>
<mask id="path-3-inside-2_402_14" fill="white">
<path fill-rule="evenodd" clip-rule="evenodd" d="M150.5 173.645C147.63 169.916 145.596 160.713 145.596 149.935C145.596 139.158 147.63 129.955 150.5 126.226C153.37 129.955 155.404 139.158 155.404 149.935C155.404 160.713 153.37 169.916 150.5 173.645ZM150.5 203C135.574 194.743 125 174.364 125 150.5C125 126.636 135.574 106.257 150.5 98C165.426 106.257 176 126.636 176 150.5C176 174.364 165.426 194.743 150.5 203Z"/>
</mask>
<path fill-rule="evenodd" clip-rule="evenodd" d="M150.5 173.645C147.63 169.916 145.596 160.713 145.596 149.935C145.596 139.158 147.63 129.955 150.5 126.226C153.37 129.955 155.404 139.158 155.404 149.935C155.404 160.713 153.37 169.916 150.5 173.645ZM150.5 203C135.574 194.743 125 174.364 125 150.5C125 126.636 135.574 106.257 150.5 98C165.426 106.257 176 126.636 176 150.5C176 174.364 165.426 194.743 150.5 203Z" fill="white"/>
<path d="M150.5 173.645L145.745 177.305L150.5 183.482L155.255 177.305L150.5 173.645ZM150.5 126.226L155.255 122.566L150.5 116.389L145.745 122.566L150.5 126.226ZM150.5 203L147.596 208.25L150.5 209.857L153.404 208.25L150.5 203ZM150.5 98L153.404 92.7498L150.5 91.1431L147.596 92.7498L150.5 98ZM139.596 149.935C139.596 155.677 140.136 161.093 141.101 165.671C142.024 170.05 143.475 174.356 145.745 177.305L155.255 169.985C154.654 169.205 153.654 167.045 152.843 163.196C152.073 159.546 151.596 154.971 151.596 149.935H139.596ZM145.745 122.566C143.475 125.515 142.024 129.821 141.101 134.2C140.136 138.778 139.596 144.194 139.596 149.935H151.596C151.596 144.9 152.073 140.325 152.843 136.675C153.654 132.826 154.654 130.665 155.255 129.886L145.745 122.566ZM161.404 149.935C161.404 144.194 160.864 138.778 159.899 134.2C158.976 129.821 157.525 125.515 155.255 122.566L145.745 129.886C146.346 130.665 147.346 132.826 148.157 136.675C148.927 140.325 149.404 144.9 149.404 149.935H161.404ZM155.255 177.305C157.525 174.356 158.976 170.05 159.899 165.671C160.864 161.093 161.404 155.677 161.404 149.935H149.404C149.404 154.971 148.927 159.546 148.157 163.196C147.346 167.045 146.346 169.205 145.745 169.985L155.255 177.305ZM119 150.5C119 175.826 130.203 198.629 147.596 208.25L153.404 197.75C140.945 190.858 131 172.901 131 150.5H119ZM147.596 92.7498C130.203 102.371 119 125.174 119 150.5H131C131 128.099 140.945 110.142 153.404 103.25L147.596 92.7498ZM182 150.5C182 125.174 170.797 102.371 153.404 92.7498L147.596 103.25C160.055 110.142 170 128.099 170 150.5H182ZM153.404 208.25C170.797 198.629 182 175.826 182 150.5H170C170 172.901 160.055 190.858 147.596 197.75L153.404 208.25Z" fill="black" mask="url(#path-3-inside-2_402_14)"/>
</svg>
