<svg width="300" height="300" viewBox="0 0 300 300" fill="none" xmlns="http://www.w3.org/2000/svg">
<mask id="path-1-inside-1_402_14" fill="white">
<path fill-rule="evenodd" clip-rule="evenodd" d="M150 246C220.14 246 277 203.243 277 150.5C277 97.7568 220.14 55 150 55C79.8598 55 23 97.7568 23 150.5C23 203.243 79.8598 246 150 246ZM150 212.135C202.949 212.135 245.873 184.54 245.873 150.5C245.873 116.46 202.949 88.8652 150 88.8652C97.0511 88.8652 54.1275 116.46 54.1275 150.5C54.1275 184.54 97.0511 212.135 150 212.135Z"/>
</mask>
<path fill-rule="evenodd" clip-rule="evenodd" d="M150 246C220.14 246 277 203.243 277 150.5C277 97.7568 220.14 55 150 55C79.8598 55 23 97.7568 23 150.5C23 203.243 79.8598 246 150 246ZM150 212.135C202.949 212.135 245.873 184.54 245.873 150.5C245.873 116.46 202.949 88.8652 150 88.8652C97.0511 88.8652 54.1275 116.46 54.1275 150.5C54.1275 184.54 97.0511 212.135 150 212.135Z" fill="white"/>
<path d="M270 150.5C270 174.182 257.251 196.15 235.596 212.434C213.937 228.72 183.698 239 150 239V253C186.443 253 219.703 241.901 244.01 223.623C268.319 205.344 284 179.561 284 150.5H270ZM150 62C183.698 62 213.937 72.2796 235.596 88.566C257.251 104.85 270 126.818 270 150.5H284C284 121.439 268.319 95.6564 244.01 77.3766C219.703 59.0988 186.443 48 150 48V62ZM30 150.5C30 126.818 42.7489 104.85 64.4045 88.566C86.0629 72.2796 116.302 62 150 62V48C113.557 48 80.2969 59.0988 55.9904 77.3766C31.6811 95.6564 16 121.439 16 150.5H30ZM150 239C116.302 239 86.0629 228.72 64.4045 212.434C42.7489 196.15 30 174.182 30 150.5H16C16 179.561 31.6811 205.344 55.9904 223.623C80.2969 241.901 113.557 253 150 253V239ZM238.873 150.5C238.873 164.331 230.143 177.821 214.007 188.194C197.946 198.519 175.335 205.135 150 205.135V219.135C177.614 219.135 202.939 211.953 221.578 199.971C240.141 188.037 252.873 170.709 252.873 150.5H238.873ZM150 95.8652C175.335 95.8652 197.946 102.481 214.007 112.806C230.143 123.179 238.873 136.669 238.873 150.5H252.873C252.873 130.291 240.141 112.963 221.578 101.029C202.939 89.0474 177.614 81.8652 150 81.8652V95.8652ZM61.1275 150.5C61.1275 136.669 69.8575 123.179 85.9933 112.806C102.054 102.481 124.665 95.8652 150 95.8652V81.8652C122.386 81.8652 97.0605 89.0474 78.4225 101.029C59.8592 112.963 47.1275 130.291 47.1275 150.5H61.1275ZM150 205.135C124.665 205.135 102.054 198.519 85.9933 188.194C69.8575 177.821 61.1275 164.331 61.1275 150.5H47.1275C47.1275 170.709 59.8592 188.037 78.4225 199.971C97.0605 211.953 122.386 219.135 150 219.135V205.135Z" fill="black" mask="url(#path-1-inside-1_402_14)"/>
<mask id="path-3-inside-2_402_14" fill="white">
<path fill-rule="evenodd" clip-rule="evenodd" d="M150 207C167.673 207 182 181.48 182 150C182 118.52 167.673 93 150 93C132.327 93 118 118.52 118 150C118 181.48 132.327 207 150 207ZM145 150C145 159.545 147.073 167.697 150 171C152.927 167.697 155 159.545 155 150C155 140.455 152.927 132.303 150 129C147.073 132.303 145 140.455 145 150Z"/>
</mask>
<path fill-rule="evenodd" clip-rule="evenodd" d="M150 207C167.673 207 182 181.48 182 150C182 118.52 167.673 93 150 93C132.327 93 118 118.52 118 150C118 181.48 132.327 207 150 207ZM145 150C145 159.545 147.073 167.697 150 171C152.927 167.697 155 159.545 155 150C155 140.455 152.927 132.303 150 129C147.073 132.303 145 140.455 145 150Z" fill="white"/>
<path d="M150 171L145.509 174.979L150 180.047L154.491 174.979L150 171ZM150 129L154.491 125.021L150 119.953L145.509 125.021L150 129ZM176 150C176 164.907 172.595 178.106 167.396 187.368C162.089 196.82 155.7 201 150 201V213C161.973 213 171.584 204.42 177.859 193.242C184.241 181.874 188 166.574 188 150H176ZM150 99C155.7 99 162.089 103.18 167.396 112.632C172.595 121.894 176 135.093 176 150H188C188 133.426 184.241 118.126 177.859 106.758C171.584 95.5799 161.973 87 150 87V99ZM124 150C124 135.093 127.405 121.894 132.604 112.632C137.911 103.18 144.3 99 150 99V87C138.027 87 128.416 95.5799 122.141 106.758C115.759 118.126 112 133.426 112 150H124ZM150 201C144.3 201 137.911 196.82 132.604 187.368C127.405 178.106 124 164.907 124 150H112C112 166.574 115.759 181.874 122.141 193.242C128.416 204.42 138.027 213 150 213V201ZM154.491 167.021C153.994 166.461 153.035 164.73 152.233 161.426C151.477 158.308 151 154.365 151 150H139C139 155.181 139.56 160.086 140.572 164.256C141.538 168.24 143.079 172.237 145.509 174.979L154.491 167.021ZM149 150C149 154.365 148.523 158.308 147.767 161.426C146.965 164.73 146.006 166.461 145.509 167.021L154.491 174.979C156.921 172.237 158.462 168.24 159.428 164.256C160.44 160.086 161 155.181 161 150H149ZM145.509 132.979C146.006 133.539 146.965 135.27 147.767 138.574C148.523 141.692 149 145.635 149 150H161C161 144.819 160.44 139.914 159.428 135.744C158.462 131.76 156.921 127.763 154.491 125.021L145.509 132.979ZM151 150C151 145.635 151.477 141.692 152.233 138.574C153.035 135.27 153.994 133.539 154.491 132.979L145.509 125.021C143.079 127.763 141.538 131.76 140.572 135.744C139.56 139.914 139 144.819 139 150H151Z" fill="black" mask="url(#path-3-inside-2_402_14)"/>
</svg>
