<svg width="300" height="300" viewBox="0 0 300 300" fill="none" xmlns="http://www.w3.org/2000/svg">
<mask id="path-1-inside-1_402_14" fill="white">
<path fill-rule="evenodd" clip-rule="evenodd" d="M150 246C220.14 246 277 203.243 277 150.5C277 97.7568 220.14 55 150 55C79.8598 55 23 97.7568 23 150.5C23 203.243 79.8598 246 150 246ZM150 212.135C202.949 212.135 245.873 184.54 245.873 150.5C245.873 116.46 202.949 88.8652 150 88.8652C97.0511 88.8652 54.1275 116.46 54.1275 150.5C54.1275 184.54 97.0511 212.135 150 212.135Z"/>
</mask>
<path fill-rule="evenodd" clip-rule="evenodd" d="M150 246C220.14 246 277 203.243 277 150.5C277 97.7568 220.14 55 150 55C79.8598 55 23 97.7568 23 150.5C23 203.243 79.8598 246 150 246ZM150 212.135C202.949 212.135 245.873 184.54 245.873 150.5C245.873 116.46 202.949 88.8652 150 88.8652C97.0511 88.8652 54.1275 116.46 54.1275 150.5C54.1275 184.54 97.0511 212.135 150 212.135Z" fill="white"/>
<path d="M270 150.5C270 174.182 257.251 196.15 235.596 212.434C213.937 228.72 183.698 239 150 239V253C186.443 253 219.703 241.901 244.01 223.623C268.319 205.344 284 179.561 284 150.5H270ZM150 62C183.698 62 213.937 72.2796 235.596 88.566C257.251 104.85 270 126.818 270 150.5H284C284 121.439 268.319 95.6564 244.01 77.3766C219.703 59.0988 186.443 48 150 48V62ZM30 150.5C30 126.818 42.7489 104.85 64.4045 88.566C86.0629 72.2796 116.302 62 150 62V48C113.557 48 80.2969 59.0988 55.9904 77.3766C31.6811 95.6564 16 121.439 16 150.5H30ZM150 239C116.302 239 86.0629 228.72 64.4045 212.434C42.7489 196.15 30 174.182 30 150.5H16C16 179.561 31.6811 205.344 55.9904 223.623C80.2969 241.901 113.557 253 150 253V239ZM238.873 150.5C238.873 164.331 230.143 177.821 214.007 188.194C197.946 198.519 175.335 205.135 150 205.135V219.135C177.614 219.135 202.939 211.953 221.578 199.971C240.141 188.037 252.873 170.709 252.873 150.5H238.873ZM150 95.8652C175.335 95.8652 197.946 102.481 214.007 112.806C230.143 123.179 238.873 136.669 238.873 150.5H252.873C252.873 130.291 240.141 112.963 221.578 101.029C202.939 89.0474 177.614 81.8652 150 81.8652V95.8652ZM61.1275 150.5C61.1275 136.669 69.8575 123.179 85.9933 112.806C102.054 102.481 124.665 95.8652 150 95.8652V81.8652C122.386 81.8652 97.0605 89.0474 78.4225 101.029C59.8592 112.963 47.1275 130.291 47.1275 150.5H61.1275ZM150 205.135C124.665 205.135 102.054 198.519 85.9933 188.194C69.8575 177.821 61.1275 164.331 61.1275 150.5H47.1275C47.1275 170.709 59.8592 188.037 78.4225 199.971C97.0605 211.953 122.386 219.135 150 219.135V205.135Z" fill="black" mask="url(#path-1-inside-1_402_14)"/>
<mask id="path-3-inside-2_402_14" fill="white">
<path fill-rule="evenodd" clip-rule="evenodd" d="M150 176.011C146.848 171.82 144.615 161.477 144.615 149.366C144.615 137.254 146.848 126.911 150 122.721C153.152 126.911 155.385 137.254 155.385 149.366C155.385 161.477 153.152 171.82 150 176.011ZM150 209C133.611 199.721 122 176.818 122 150C122 123.182 133.611 100.279 150 91C166.389 100.279 178 123.182 178 150C178 176.818 166.389 199.721 150 209Z"/>
</mask>
<path fill-rule="evenodd" clip-rule="evenodd" d="M150 176.011C146.848 171.82 144.615 161.477 144.615 149.366C144.615 137.254 146.848 126.911 150 122.721C153.152 126.911 155.385 137.254 155.385 149.366C155.385 161.477 153.152 171.82 150 176.011ZM150 209C133.611 199.721 122 176.818 122 150C122 123.182 133.611 100.279 150 91C166.389 100.279 178 123.182 178 150C178 176.818 166.389 199.721 150 209Z" fill="white"/>
<path d="M150 176.011L145.205 179.617L150 185.993L154.795 179.617L150 176.011ZM150 122.721L154.795 119.114L150 112.739L145.205 119.114L150 122.721ZM150 209L147.044 214.221L150 215.895L152.956 214.221L150 209ZM150 91L152.956 85.7787L150 84.1051L147.044 85.7787L150 91ZM138.615 149.366C138.615 155.766 139.203 161.791 140.249 166.869C141.254 171.746 142.816 176.441 145.205 179.617L154.795 172.404C154.032 171.39 152.902 168.818 152.002 164.448C151.144 160.279 150.615 155.077 150.615 149.366H138.615ZM145.205 119.114C142.816 122.29 141.254 126.985 140.249 131.863C139.203 136.941 138.615 142.965 138.615 149.366H150.615C150.615 143.655 151.144 138.452 152.002 134.283C152.902 129.913 154.032 127.341 154.795 126.327L145.205 119.114ZM161.385 149.366C161.385 142.965 160.797 136.941 159.751 131.863C158.746 126.985 157.184 122.29 154.795 119.114L145.205 126.327C145.968 127.341 147.098 129.913 147.998 134.283C148.856 138.452 149.385 143.655 149.385 149.366H161.385ZM154.795 179.617C157.184 176.441 158.746 171.746 159.751 166.869C160.797 161.791 161.385 155.766 161.385 149.366H149.385C149.385 155.077 148.856 160.279 147.998 164.448C147.098 168.818 145.968 171.39 145.205 172.404L154.795 179.617ZM116 150C116 178.217 128.192 203.548 147.044 214.221L152.956 203.779C139.029 195.894 128 175.42 128 150H116ZM147.044 85.7787C128.192 96.452 116 121.783 116 150H128C128 124.58 139.029 104.106 152.956 96.2213L147.044 85.7787ZM184 150C184 121.783 171.808 96.452 152.956 85.7787L147.044 96.2213C160.971 104.106 172 124.58 172 150H184ZM152.956 214.221C171.808 203.548 184 178.217 184 150H172C172 175.42 160.971 195.894 147.044 203.779L152.956 214.221Z" fill="black" mask="url(#path-3-inside-2_402_14)"/>
</svg>
