<svg width="450" height="450" viewBox="0 0 450 450" fill="none" xmlns="http://www.w3.org/2000/svg">
<path d="M289.183 172.733C289.314 172.99 289.447 173.253 289.582 173.52C271.887 173.651 253.382 173.496 235.749 173.033L225.684 160.092L224.349 158.376L223.219 160.233C203.51 192.611 184.664 225.467 166.68 258.801L166.292 259.52L166.686 260.237C178.15 281.063 189.758 301.871 201.511 322.659C184.046 323.639 164.914 323.316 147.511 322.535C147.162 322.266 147.024 322.083 146.892 321.884C146.846 321.815 146.79 321.723 146.72 321.61C146.514 321.274 146.198 320.758 145.741 320.165C138.175 307.496 130.056 292.733 122.273 278.581C118.506 271.731 114.817 265.024 111.308 258.766L111.125 258.869L111.308 258.766C111.288 258.731 111.27 258.698 111.253 258.667C111.389 258.452 111.579 258.153 111.806 257.752C148.818 192.311 187.298 126.712 225.304 61.9453C246.346 99.0374 267.639 135.967 289.183 172.733Z" fill="white" stroke="black" stroke-width="3"/>
<path d="M357.242 290.768C375.642 322.705 394.043 354.642 412.443 386.579C369.803 387.665 327.161 387.824 284.515 387.059C293.198 371.371 302.329 355.978 311.91 340.878C316.947 340.015 322.014 339.392 327.112 339.009L329.5 338.83L328.297 336.759C309.84 305.013 290.51 271.172 272.303 239.257L272.015 238.752L271.463 238.573C271.22 238.494 271.049 238.436 270.896 238.383C270.814 238.355 270.736 238.329 270.655 238.302C270.441 238.23 270.217 238.16 269.951 238.113C269.553 238.042 269.089 238.033 268.391 238.02C268.277 238.018 268.158 238.016 268.031 238.013C255.852 237.763 237.465 237.638 222.07 237.574C214.37 237.542 207.416 237.525 202.355 237.515C200.15 237.511 198.304 237.508 196.913 237.506L196.328 237.505C196.286 237.505 196.244 237.505 196.203 237.505C196.411 237.099 196.644 236.659 196.884 236.212C197.347 235.35 197.826 234.487 198.191 233.837C198.373 233.513 198.526 233.243 198.633 233.054C198.687 232.96 198.729 232.886 198.758 232.835L198.784 232.79L225.821 190.513C226.168 190.513 226.619 190.514 227.167 190.514C228.564 190.515 230.587 190.517 233.092 190.521C238.102 190.529 245.038 190.544 252.745 190.576C268.042 190.638 286.362 190.761 298.679 191.007C299.278 191.274 299.831 191.606 300.34 192.004C319.307 224.925 338.274 257.847 357.242 290.768Z" fill="white" stroke="black" stroke-width="3"/>
<path d="M37.5611 386.552C58.4436 349.956 79.3003 313.377 100.131 276.813C104.079 282.464 107.016 286.849 109.904 291.162C110.149 291.528 110.394 291.894 110.639 292.26C114.095 297.419 117.596 302.615 122.779 309.872C123.518 310.906 123.667 312.087 123.205 313.654C122.723 315.291 121.606 317.215 119.955 319.495C118.423 321.612 116.516 323.923 114.402 326.486C114.253 326.666 114.104 326.848 113.953 327.03C111.673 329.796 109.192 332.826 106.789 336.115L105.111 338.41L107.953 338.499C145.283 339.666 196.652 340.847 234.033 340.013L234.205 340.009L234.371 339.967C237.879 339.072 240.413 336.944 241.855 333.658C251.973 314.055 263.014 295.096 274.979 276.781C284.433 291.756 293.212 307.166 301.315 323.012C290.038 345.024 277.661 366.36 264.182 387.022C188.64 387.836 113.099 387.68 37.5611 386.552Z" fill="white" stroke="black" stroke-width="3"/>
</svg>
