<svg width="315" height="315" viewBox="0 0 315 315" fill="none" xmlns="http://www.w3.org/2000/svg">
<g clip-path="url(#clip0_310_2)">
<mask id="path-1-inside-1_310_2" fill="white">
<path d="M157 13C182.427 13 207.407 19.6864 229.434 32.3884C251.461 45.0904 269.761 63.3614 282.498 85.3685C295.234 107.376 301.96 132.345 302 157.772C302.04 183.199 295.393 208.19 282.725 230.237L232.435 201.342C240.036 188.114 244.024 173.12 244 157.863C243.976 142.607 239.941 127.625 232.299 114.421C224.657 101.217 213.677 90.2542 200.46 82.633C187.244 75.0118 172.256 71 157 71L157 13Z"/>
</mask>
<path d="M157 13C182.427 13 207.407 19.6864 229.434 32.3884C251.461 45.0904 269.761 63.3614 282.498 85.3685C295.234 107.376 301.96 132.345 302 157.772C302.04 183.199 295.393 208.19 282.725 230.237L232.435 201.342C240.036 188.114 244.024 173.12 244 157.863C243.976 142.607 239.941 127.625 232.299 114.421C224.657 101.217 213.677 90.2542 200.46 82.633C187.244 75.0118 172.256 71 157 71L157 13Z" fill="white" stroke="black" stroke-width="12" mask="url(#path-1-inside-1_310_2)"/>
<mask id="path-2-inside-2_310_2" fill="white">
<path d="M31.4263 230.5C18.7127 208.479 12.0133 183.503 12 158.076C11.9867 132.649 18.66 107.665 31.3504 85.6315C44.0409 63.5977 62.3023 45.2884 84.3028 32.5403C106.303 19.7922 131.269 13.0536 156.696 13.0003L156.818 71.0002C141.562 71.0321 126.582 75.0753 113.382 82.7242C100.181 90.373 89.2245 101.359 81.6102 114.579C73.996 127.799 69.992 142.789 70 158.046C70.008 173.302 74.0276 188.288 81.6557 201.5L31.4263 230.5Z"/>
</mask>
<path d="M31.4263 230.5C18.7127 208.479 12.0133 183.503 12 158.076C11.9867 132.649 18.66 107.665 31.3504 85.6315C44.0409 63.5977 62.3023 45.2884 84.3028 32.5403C106.303 19.7922 131.269 13.0536 156.696 13.0003L156.818 71.0002C141.562 71.0321 126.582 75.0753 113.382 82.7242C100.181 90.373 89.2245 101.359 81.6102 114.579C73.996 127.799 69.992 142.789 70 158.046C70.008 173.302 74.0276 188.288 81.6557 201.5L31.4263 230.5Z" fill="white" stroke="black" stroke-width="12" mask="url(#path-2-inside-2_310_2)"/>
<mask id="path-3-inside-3_310_2" fill="white">
<path d="M282.574 230.5C269.86 252.52 251.58 270.811 229.566 283.536C207.552 296.261 182.579 302.973 157.152 303C131.725 303.027 106.738 296.366 84.6973 283.687C62.6569 271.008 44.338 252.757 31.5784 230.763L81.747 201.658C89.4028 214.854 100.394 225.805 113.618 233.412C126.843 241.02 141.835 245.016 157.091 245C172.347 244.984 187.331 240.956 200.539 233.321C213.748 225.686 224.716 214.712 232.344 201.5L282.574 230.5Z"/>
</mask>
<path d="M282.574 230.5C269.86 252.52 251.58 270.811 229.566 283.536C207.552 296.261 182.579 302.973 157.152 303C131.725 303.027 106.738 296.366 84.6973 283.687C62.6569 271.008 44.338 252.757 31.5784 230.763L81.747 201.658C89.4028 214.854 100.394 225.805 113.618 233.412C126.843 241.02 141.835 245.016 157.091 245C172.347 244.984 187.331 240.956 200.539 233.321C213.748 225.686 224.716 214.712 232.344 201.5L282.574 230.5Z" fill="white" stroke="black" stroke-width="12" mask="url(#path-3-inside-3_310_2)"/>
</g>
<defs>
<clipPath id="clip0_310_2">
<rect width="315" height="315" fill="white"/>
</clipPath>
</defs>
</svg>
