<svg width="300" height="300" viewBox="0 0 300 300" fill="none" xmlns="http://www.w3.org/2000/svg">
<path d="M68.47 166.326L96.9713 179.613L94.9852 214.42L65.7046 197.664L68.47 166.326Z" fill="white"/>
<path d="M234.44 166.326L236.446 198.113L205.44 212.326L203.97 179.863L234.44 166.326Z" fill="white"/>
<path d="M149.97 50.1126L178.97 69.1126L150.47 88.1126L121.97 68.1126L149.97 50.1126Z" fill="white"/>
<path d="M63.9459 96.6126L65.47 131.515L97.5913 148.894L123.444 131.986L63.9459 96.6126Z" fill="white"/>
<path d="M94.47 85.5145L63.9459 96.6126L123.444 131.986L122.5 100.5L94.47 85.5145Z" fill="white"/>
<path d="M150.47 88.1126L121.97 68.1126L122.5 100.5L123.444 131.986L150.284 147.944L150.47 88.1126Z" fill="white"/>
<path d="M178.97 69.1126L150.47 88.1126L150.284 147.944L178.544 131.687L178.742 102.661L178.97 69.1126Z" fill="white"/>
<path d="M236.47 98.3626L208.44 85.5145L178.742 102.661L178.544 131.687L236.47 98.3626Z" fill="white"/>
<path d="M234.955 133.609L236.47 98.3626L178.544 131.687L178.541 132.103L206.49 149.214L234.955 133.609Z" fill="white"/>
<path d="M203.97 179.863L234.44 166.326L206.49 149.214L178.541 132.103L178.544 131.687L150.284 147.944L203.97 179.863Z" fill="white"/>
<path d="M205.44 212.326L203.97 179.863L150.284 147.944L150.175 182.951L177.808 197.638L205.44 212.326Z" fill="white"/>
<path d="M149.97 249.113L178.97 230.736L177.808 197.638L150.175 182.951L149.97 249.113Z" fill="white"/>
<path d="M121.97 229.736L149.97 249.113L150.175 182.951L123.243 198.324L121.97 229.736Z" fill="white"/>
<path d="M96.9713 179.613L94.9852 214.42L123.243 198.324L150.175 182.951L150.284 147.944L96.9713 179.613Z" fill="white"/>
<path d="M68.47 166.326L96.9713 179.613L150.284 147.944L123.444 131.986L97.5913 148.894L68.47 166.326Z" fill="white"/>
<path d="M63.9459 96.6126L94.47 85.5145L122.5 100.5M63.9459 96.6126L65.47 131.515L97.5913 148.894M63.9459 96.6126L123.444 131.986M68.47 166.326L96.9713 179.613M68.47 166.326L65.7046 197.664L94.9852 214.42M68.47 166.326L97.5913 148.894M96.9713 179.613L94.9852 214.42M96.9713 179.613L150.284 147.944M94.9852 214.42L123.243 198.324M236.47 98.3626L234.955 133.609L206.49 149.214M236.47 98.3626L208.44 85.5145M236.47 98.3626L178.544 131.687M208.44 85.5145C178.742 102.661 178.742 102.661 178.742 102.661M208.44 85.5145L178.742 102.661M234.44 166.326L236.446 198.113L205.44 212.326M234.44 166.326L203.97 179.863M234.44 166.326L206.49 149.214M205.44 212.326L203.97 179.863M205.44 212.326L177.808 197.638M203.97 179.863L123.444 131.986M203.97 179.863L150.284 147.944M178.97 69.1126L149.97 50.1126L121.97 68.1126M178.97 69.1126L150.47 88.1126M178.97 69.1126L178.742 102.661M150.47 88.1126L121.97 68.1126M150.47 88.1126L150.175 182.951M150.47 88.1126L150.284 147.944M121.97 68.1126L122.5 100.5M149.97 249.113L178.97 230.736L177.808 197.638M149.97 249.113L121.97 229.736L123.243 198.324M149.97 249.113L150.175 182.951M178.742 102.661L178.544 131.687M123.444 131.986L97.5913 148.894M123.444 131.986L122.5 100.5M123.444 131.986L150.284 147.944M150.175 182.951L123.243 198.324M150.175 182.951L177.808 197.638M150.175 182.951L150.284 147.944M206.49 149.214L178.541 132.103L178.544 131.687M150.284 147.944L178.544 131.687" stroke="black" stroke-width="6"/>
</svg>
