<svg width="180" height="207" viewBox="0 0 180 207" fill="none" xmlns="http://www.w3.org/2000/svg">
<path d="M8.46997 120.326L36.9713 133.613L34.9852 168.42L5.70462 151.664L8.46997 120.326Z" fill="#D9D9D9"/>
<path d="M174.44 120.326L176.446 152.113L145.44 166.326L143.97 133.863L174.44 120.326Z" fill="#D9D9D9"/>
<path d="M89.97 4.11258L118.97 23.1126L90.47 42.1126L61.97 22.1126L89.97 4.11258Z" fill="#D9D9D9"/>
<path d="M3.94592 50.6126L5.46997 85.5145L37.5913 102.894L63.4438 85.9865L3.94592 50.6126Z" fill="#D9D9D9"/>
<path d="M34.47 39.5145L3.94592 50.6126L63.4438 85.9865L62.5 54.5L34.47 39.5145Z" fill="#D9D9D9"/>
<path d="M90.47 42.1126L61.97 22.1126L62.5 54.5L63.4438 85.9865L90.2842 101.944L90.47 42.1126Z" fill="#D9D9D9"/>
<path d="M118.97 23.1126L90.47 42.1126L90.2842 101.944L118.544 85.6867L118.742 56.6607L118.97 23.1126Z" fill="#D9D9D9"/>
<path d="M176.47 52.3626L148.44 39.5145L118.742 56.6607L118.544 85.6867L176.47 52.3626Z" fill="#D9D9D9"/>
<path d="M174.955 87.6088L176.47 52.3626L118.544 85.6867L118.541 86.1029L146.49 103.214L174.955 87.6088Z" fill="#D9D9D9"/>
<path d="M143.97 133.863L174.44 120.326L146.49 103.214L118.541 86.1029L118.544 85.6867L90.2842 101.944L143.97 133.863Z" fill="#D9D9D9"/>
<path d="M145.44 166.326L143.97 133.863L90.2842 101.944L90.1755 136.951L117.808 151.638L145.44 166.326Z" fill="#D9D9D9"/>
<path d="M89.97 203.113L118.97 184.736L117.808 151.638L90.1755 136.951L89.97 203.113Z" fill="#D9D9D9"/>
<path d="M61.97 183.736L89.97 203.113L90.1755 136.951L63.2429 152.324L61.97 183.736Z" fill="#D9D9D9"/>
<path d="M36.9713 133.613L34.9852 168.42L63.2429 152.324L90.1755 136.951L90.2842 101.944L36.9713 133.613Z" fill="#D9D9D9"/>
<path d="M8.46997 120.326L36.9713 133.613L90.2842 101.944L63.4438 85.9865L37.5913 102.894L8.46997 120.326Z" fill="#D9D9D9"/>
<path d="M3.94592 50.6126L34.47 39.5145L62.5 54.5M3.94592 50.6126L5.46997 85.5145L37.5913 102.894M3.94592 50.6126L63.4438 85.9865M8.46997 120.326L36.9713 133.613M8.46997 120.326L5.70462 151.664L34.9852 168.42M8.46997 120.326L37.5913 102.894M36.9713 133.613L34.9852 168.42M36.9713 133.613L90.2842 101.944M34.9852 168.42L63.2429 152.324M176.47 52.3626L174.955 87.6088L146.49 103.214M176.47 52.3626L148.44 39.5145M176.47 52.3626L118.544 85.6867M148.44 39.5145C118.742 56.6607 118.742 56.6607 118.742 56.6607M148.44 39.5145L118.742 56.6607M174.44 120.326L176.446 152.113L145.44 166.326M174.44 120.326L143.97 133.863M174.44 120.326L146.49 103.214M145.44 166.326L143.97 133.863M145.44 166.326L117.808 151.638M143.97 133.863L63.4438 85.9865M143.97 133.863L90.2842 101.944M118.97 23.1126L89.97 4.11258L61.97 22.1126M118.97 23.1126L90.47 42.1126M118.97 23.1126L118.742 56.6607M90.47 42.1126L61.97 22.1126M90.47 42.1126L90.1755 136.951M90.47 42.1126L90.2842 101.944M61.97 22.1126L62.5 54.5M89.97 203.113L118.97 184.736L117.808 151.638M89.97 203.113L61.97 183.736L63.2429 152.324M89.97 203.113L90.1755 136.951M118.742 56.6607L118.544 85.6867M63.4438 85.9865L37.5913 102.894M63.4438 85.9865L62.5 54.5M63.4438 85.9865L90.2842 101.944M90.1755 136.951L63.2429 152.324M90.1755 136.951L117.808 151.638M90.1755 136.951L90.2842 101.944M146.49 103.214L118.541 86.1029L118.544 85.6867M90.2842 101.944L118.544 85.6867" stroke="black" stroke-width="6"/>
</svg>
