<svg width="300" height="300" viewBox="0 0 300 300" fill="none" xmlns="http://www.w3.org/2000/svg">
<path d="M100.282 8L112.929 32.2898H87.6346L100.282 8Z" fill="white" stroke="black" stroke-width="4.5"/>
<path d="M112.451 31.7397L137.745 31.7397L125.098 56.0294L112.451 31.7397Z" fill="white" stroke="black" stroke-width="4.5"/>
<path d="M112.451 79.2397L125.098 54.9499L137.745 79.2397L112.451 79.2397Z" fill="white" stroke="black" stroke-width="4.5"/>
<path d="M100.282 103L87.6346 78.7102H112.929L100.282 103Z" fill="white" stroke="black" stroke-width="4.5"/>
<path d="M88.5801 79.2396L63.2861 79.2396L75.9331 54.9498L88.5801 79.2396Z" fill="white" stroke="black" stroke-width="4.5"/>
<path d="M75.9424 56.0398L63.2955 31.75H88.5894L75.9424 56.0398Z" fill="white" stroke="black" stroke-width="4.5"/>
<path d="M234.912 79.2397L260.206 79.2397L247.559 103.529L234.912 79.2397Z" fill="white" stroke="black" stroke-width="4.5"/>
<path d="M234.912 126.74L247.559 102.45L260.206 126.74L234.912 126.74Z" fill="white" stroke="black" stroke-width="4.5"/>
<path d="M222.743 150.5L210.096 126.21H235.39L222.743 150.5Z" fill="white" stroke="black" stroke-width="4.5"/>
<path d="M198.403 103.54L185.756 79.25H211.05L198.403 103.54Z" fill="white" stroke="black" stroke-width="4.5"/>
<path d="M149.266 8L161.913 32.2898H136.619L149.266 8Z" fill="white" stroke="black" stroke-width="4.5"/>
<path d="M161.436 31.7397L186.729 31.7397L174.083 56.0294L161.436 31.7397Z" fill="white" stroke="black" stroke-width="4.5"/>
<path d="M161.436 79.2397L174.082 54.9499L186.729 79.2397L161.436 79.2397Z" fill="white" stroke="black" stroke-width="4.5"/>
<path d="M137.564 79.2396L112.271 79.2396L124.917 54.9498L137.564 79.2396Z" fill="white" stroke="black" stroke-width="4.5"/>
<path d="M124.927 56.0398L112.28 31.75H137.574L124.927 56.0398Z" fill="white" stroke="black" stroke-width="4.5"/>
<path d="M198.25 8L210.897 32.2898H185.603L198.25 8Z" fill="white" stroke="black" stroke-width="4.5"/>
<path d="M210.42 31.7397L235.714 31.7397L223.067 56.0294L210.42 31.7397Z" fill="white" stroke="black" stroke-width="4.5"/>
<path d="M210.42 79.2397L223.067 54.9499L235.714 79.2397L210.42 79.2397Z" fill="white" stroke="black" stroke-width="4.5"/>
<path d="M198.25 103L185.603 78.7102H210.897L198.25 103Z" fill="white" stroke="black" stroke-width="4.5"/>
<path d="M186.549 79.2396L161.255 79.2396L173.902 54.9498L186.549 79.2396Z" fill="white" stroke="black" stroke-width="4.5"/>
<path d="M173.911 56.0398L161.264 31.75H186.558L173.911 56.0398Z" fill="white" stroke="black" stroke-width="4.5"/>
<path d="M75.7894 55.5L88.4364 79.7898H63.1424L75.7894 55.5Z" fill="white" stroke="black" stroke-width="4.5"/>
<path d="M87.959 79.2397L113.253 79.2397L100.606 103.529L87.959 79.2397Z" fill="white" stroke="black" stroke-width="4.5"/>
<path d="M75.7894 150.5L63.1424 126.21H88.4364L75.7894 150.5Z" fill="white" stroke="black" stroke-width="4.5"/>
<path d="M51.4503 103.54L38.8033 79.25H64.0972L51.4503 103.54Z" fill="white" stroke="black" stroke-width="4.5"/>
<path d="M51.2972 103L63.9442 127.29H38.6502L51.2972 103Z" fill="white" stroke="black" stroke-width="4.5"/>
<path d="M63.4668 174.24L76.1138 149.95L88.7608 174.24L63.4668 174.24Z" fill="white" stroke="black" stroke-width="4.5"/>
<path d="M51.2972 198L38.6502 173.71H63.9442L51.2972 198Z" fill="white" stroke="black" stroke-width="4.5"/>
<path d="M39.5957 174.24L14.3017 174.24L26.9487 149.95L39.5957 174.24Z" fill="white" stroke="black" stroke-width="4.5"/>
<path d="M26.9581 151.04L14.3111 126.75H39.6051L26.9581 151.04Z" fill="white" stroke="black" stroke-width="4.5"/>
<path d="M75.7894 245.5L63.1424 221.21H88.4364L75.7894 245.5Z" fill="white" stroke="black" stroke-width="4.5"/>
<path d="M64.0879 221.74L38.7939 221.74L51.4409 197.45L64.0879 221.74Z" fill="white" stroke="black" stroke-width="4.5"/>
<path d="M100.282 198L112.929 222.29H87.6346L100.282 198Z" fill="white" stroke="black" stroke-width="4.5"/>
<path d="M112.451 221.74L137.745 221.74L125.098 246.029L112.451 221.74Z" fill="white" stroke="black" stroke-width="4.5"/>
<path d="M112.451 269.24L125.098 244.95L137.745 269.24L112.451 269.24Z" fill="white" stroke="black" stroke-width="4.5"/>
<path d="M100.282 293L87.6346 268.71H112.929L100.282 293Z" fill="white" stroke="black" stroke-width="4.5"/>
<path d="M88.5801 269.24L63.2861 269.24L75.9331 244.95L88.5801 269.24Z" fill="white" stroke="black" stroke-width="4.5"/>
<path d="M75.9424 246.04L63.2955 221.75H88.5894L75.9424 246.04Z" fill="white" stroke="black" stroke-width="4.5"/>
<path d="M161.436 221.74L186.729 221.74L174.083 246.029L161.436 221.74Z" fill="white" stroke="black" stroke-width="4.5"/>
<path d="M161.436 269.24L174.082 244.95L186.729 269.24L161.436 269.24Z" fill="white" stroke="black" stroke-width="4.5"/>
<path d="M149.266 293L136.619 268.71H161.913L149.266 293Z" fill="white" stroke="black" stroke-width="4.5"/>
<path d="M124.927 246.04L112.28 221.75H137.574L124.927 246.04Z" fill="white" stroke="black" stroke-width="4.5"/>
<path d="M210.42 269.24L223.067 244.95L235.714 269.24L210.42 269.24Z" fill="white" stroke="black" stroke-width="4.5"/>
<path d="M198.25 293L185.603 268.71H210.897L198.25 293Z" fill="white" stroke="black" stroke-width="4.5"/>
<path d="M186.549 269.24L161.255 269.24L173.902 244.95L186.549 269.24Z" fill="white" stroke="black" stroke-width="4.5"/>
<path d="M173.911 246.04L161.264 221.75H186.558L173.911 246.04Z" fill="white" stroke="black" stroke-width="4.5"/>
<path d="M234.912 221.74L247.559 197.45L260.206 221.74L234.912 221.74Z" fill="white" stroke="black" stroke-width="4.5"/>
<path d="M222.743 245.5L210.096 221.21H235.39L222.743 245.5Z" fill="white" stroke="black" stroke-width="4.5"/>
<path d="M211.041 221.74L185.747 221.74L198.394 197.45L211.041 221.74Z" fill="white" stroke="black" stroke-width="4.5"/>
<path d="M247.235 103L259.882 127.29H234.588L247.235 103Z" fill="white" stroke="black" stroke-width="4.5"/>
<path d="M259.404 126.74L284.698 126.74L272.051 151.029L259.404 126.74Z" fill="white" stroke="black" stroke-width="4.5"/>
<path d="M259.404 174.24L272.051 149.95L284.698 174.24L259.404 174.24Z" fill="white" stroke="black" stroke-width="4.5"/>
<path d="M247.235 198L234.588 173.71H259.882L247.235 198Z" fill="white" stroke="black" stroke-width="4.5"/>
<path d="M235.533 174.24L210.239 174.24L222.886 149.95L235.533 174.24Z" fill="white" stroke="black" stroke-width="4.5"/>
<path d="M222.896 151.04L210.249 126.75H235.543L222.896 151.04Z" fill="white" stroke="black" stroke-width="4.5"/>
<line x1="114.774" y1="79.9243" x2="77.7736" y2="150.924" stroke="black" stroke-width="4"/>
<line x1="110.988" y1="219.006" x2="75.9875" y2="149.006" stroke="black" stroke-width="4.5"/>
<line x1="113" y1="219.75" x2="186" y2="219.75" stroke="black" stroke-width="4.5"/>
<line x1="223.001" y1="149.028" x2="186.001" y2="221.028" stroke="black" stroke-width="4.5"/>
<line x1="220.982" y1="150.995" x2="185.982" y2="79.9948" stroke="black" stroke-width="4.5"/>
<line x1="112" y1="79.75" x2="187" y2="79.75" stroke="black" stroke-width="4.5"/>
</svg>
