<svg width="285" height="295" viewBox="0 0 285 295" fill="none" xmlns="http://www.w3.org/2000/svg">
<path d="M93.2816 5L105.929 29.2898H80.6346L93.2816 5Z" fill="white" stroke="black" stroke-width="4.5"/>
<path d="M105.451 28.7397L130.745 28.7397L118.098 53.0294L105.451 28.7397Z" fill="white" stroke="black" stroke-width="4.5"/>
<path d="M105.451 76.2397L118.098 51.9499L130.745 76.2397L105.451 76.2397Z" fill="white" stroke="black" stroke-width="4.5"/>
<path d="M93.2816 100L80.6346 75.7102H105.929L93.2816 100Z" fill="white" stroke="black" stroke-width="4.5"/>
<path d="M81.5801 76.2396L56.2861 76.2396L68.9331 51.9498L81.5801 76.2396Z" fill="white" stroke="black" stroke-width="4.5"/>
<path d="M68.9424 53.0398L56.2955 28.75H81.5894L68.9424 53.0398Z" fill="white" stroke="black" stroke-width="4.5"/>
<path d="M227.912 76.2397L253.206 76.2397L240.559 100.529L227.912 76.2397Z" fill="white" stroke="black" stroke-width="4.5"/>
<path d="M227.912 123.74L240.559 99.4499L253.206 123.74L227.912 123.74Z" fill="white" stroke="black" stroke-width="4.5"/>
<path d="M215.743 147.5L203.096 123.21H228.39L215.743 147.5Z" fill="white" stroke="black" stroke-width="4.5"/>
<path d="M191.403 100.54L178.756 76.25H204.05L191.403 100.54Z" fill="white" stroke="black" stroke-width="4.5"/>
<path d="M142.266 5L154.913 29.2898H129.619L142.266 5Z" fill="white" stroke="black" stroke-width="4.5"/>
<path d="M154.436 28.7397L179.729 28.7397L167.083 53.0294L154.436 28.7397Z" fill="white" stroke="black" stroke-width="4.5"/>
<path d="M154.436 76.2397L167.082 51.9499L179.729 76.2397L154.436 76.2397Z" fill="white" stroke="black" stroke-width="4.5"/>
<path d="M130.564 76.2396L105.271 76.2396L117.917 51.9498L130.564 76.2396Z" fill="white" stroke="black" stroke-width="4.5"/>
<path d="M117.927 53.0398L105.28 28.75H130.574L117.927 53.0398Z" fill="white" stroke="black" stroke-width="4.5"/>
<path d="M191.25 5L203.897 29.2898H178.603L191.25 5Z" fill="white" stroke="black" stroke-width="4.5"/>
<path d="M203.42 28.7397L228.714 28.7397L216.067 53.0294L203.42 28.7397Z" fill="white" stroke="black" stroke-width="4.5"/>
<path d="M203.42 76.2397L216.067 51.9499L228.714 76.2397L203.42 76.2397Z" fill="white" stroke="black" stroke-width="4.5"/>
<path d="M191.25 100L178.603 75.7102H203.897L191.25 100Z" fill="white" stroke="black" stroke-width="4.5"/>
<path d="M179.549 76.2396L154.255 76.2396L166.902 51.9498L179.549 76.2396Z" fill="white" stroke="black" stroke-width="4.5"/>
<path d="M166.911 53.0398L154.264 28.75H179.558L166.911 53.0398Z" fill="white" stroke="black" stroke-width="4.5"/>
<path d="M68.7894 52.5L81.4364 76.7898H56.1424L68.7894 52.5Z" fill="white" stroke="black" stroke-width="4.5"/>
<path d="M80.959 76.2397L106.253 76.2397L93.606 100.529L80.959 76.2397Z" fill="white" stroke="black" stroke-width="4.5"/>
<path d="M68.7894 147.5L56.1424 123.21H81.4364L68.7894 147.5Z" fill="white" stroke="black" stroke-width="4.5"/>
<path d="M44.4503 100.54L31.8033 76.25H57.0972L44.4503 100.54Z" fill="white" stroke="black" stroke-width="4.5"/>
<path d="M44.2972 100L56.9442 124.29H31.6502L44.2972 100Z" fill="white" stroke="black" stroke-width="4.5"/>
<path d="M56.4668 171.24L69.1138 146.95L81.7608 171.24L56.4668 171.24Z" fill="white" stroke="black" stroke-width="4.5"/>
<path d="M44.2972 195L31.6502 170.71H56.9442L44.2972 195Z" fill="white" stroke="black" stroke-width="4.5"/>
<path d="M32.5957 171.24L7.30174 171.24L19.9487 146.95L32.5957 171.24Z" fill="white" stroke="black" stroke-width="4.5"/>
<path d="M19.9581 148.04L7.31109 123.75H32.6051L19.9581 148.04Z" fill="white" stroke="black" stroke-width="4.5"/>
<path d="M68.7894 242.5L56.1424 218.21H81.4364L68.7894 242.5Z" fill="white" stroke="black" stroke-width="4.5"/>
<path d="M57.0879 218.74L31.7939 218.74L44.4409 194.45L57.0879 218.74Z" fill="white" stroke="black" stroke-width="4.5"/>
<path d="M93.2816 195L105.929 219.29H80.6346L93.2816 195Z" fill="white" stroke="black" stroke-width="4.5"/>
<path d="M105.451 218.74L130.745 218.74L118.098 243.029L105.451 218.74Z" fill="white" stroke="black" stroke-width="4.5"/>
<path d="M105.451 266.24L118.098 241.95L130.745 266.24L105.451 266.24Z" fill="white" stroke="black" stroke-width="4.5"/>
<path d="M93.2816 290L80.6346 265.71H105.929L93.2816 290Z" fill="white" stroke="black" stroke-width="4.5"/>
<path d="M81.5801 266.24L56.2861 266.24L68.9331 241.95L81.5801 266.24Z" fill="white" stroke="black" stroke-width="4.5"/>
<path d="M68.9424 243.04L56.2955 218.75H81.5894L68.9424 243.04Z" fill="white" stroke="black" stroke-width="4.5"/>
<path d="M154.436 218.74L179.729 218.74L167.083 243.029L154.436 218.74Z" fill="white" stroke="black" stroke-width="4.5"/>
<path d="M154.436 266.24L167.082 241.95L179.729 266.24L154.436 266.24Z" fill="white" stroke="black" stroke-width="4.5"/>
<path d="M142.266 290L129.619 265.71H154.913L142.266 290Z" fill="white" stroke="black" stroke-width="4.5"/>
<path d="M117.927 243.04L105.28 218.75H130.574L117.927 243.04Z" fill="white" stroke="black" stroke-width="4.5"/>
<path d="M203.42 266.24L216.067 241.95L228.714 266.24L203.42 266.24Z" fill="white" stroke="black" stroke-width="4.5"/>
<path d="M191.25 290L178.603 265.71H203.897L191.25 290Z" fill="white" stroke="black" stroke-width="4.5"/>
<path d="M179.549 266.24L154.255 266.24L166.902 241.95L179.549 266.24Z" fill="white" stroke="black" stroke-width="4.5"/>
<path d="M166.911 243.04L154.264 218.75H179.558L166.911 243.04Z" fill="white" stroke="black" stroke-width="4.5"/>
<path d="M227.912 218.74L240.559 194.45L253.206 218.74L227.912 218.74Z" fill="white" stroke="black" stroke-width="4.5"/>
<path d="M215.743 242.5L203.096 218.21H228.39L215.743 242.5Z" fill="white" stroke="black" stroke-width="4.5"/>
<path d="M204.041 218.74L178.747 218.74L191.394 194.45L204.041 218.74Z" fill="white" stroke="black" stroke-width="4.5"/>
<path d="M240.235 100L252.882 124.29H227.588L240.235 100Z" fill="white" stroke="black" stroke-width="4.5"/>
<path d="M252.404 123.74L277.698 123.74L265.051 148.029L252.404 123.74Z" fill="white" stroke="black" stroke-width="4.5"/>
<path d="M252.404 171.24L265.051 146.95L277.698 171.24L252.404 171.24Z" fill="white" stroke="black" stroke-width="4.5"/>
<path d="M240.235 195L227.588 170.71H252.882L240.235 195Z" fill="white" stroke="black" stroke-width="4.5"/>
<path d="M228.533 171.24L203.239 171.24L215.886 146.95L228.533 171.24Z" fill="white" stroke="black" stroke-width="4.5"/>
<path d="M215.896 148.04L203.249 123.75H228.543L215.896 148.04Z" fill="white" stroke="black" stroke-width="4.5"/>
</svg>
