<svg width="300" height="300" viewBox="0 0 300 300" fill="none" xmlns="http://www.w3.org/2000/svg">
<path d="M100.706 10.8983L112.523 34.3647H88.888L100.706 10.8983Z" fill="white" stroke="black" stroke-width="4.5"/>
<path d="M112.077 33.8332L135.713 33.8332L123.895 57.2996L112.077 33.8332Z" fill="white" stroke="black" stroke-width="4.5"/>
<path d="M112.077 79.723L123.895 56.2566L135.713 79.723L112.077 79.723Z" fill="white" stroke="black" stroke-width="4.5"/>
<path d="M100.706 102.678L88.8881 79.2116L112.523 79.2116L100.706 102.678Z" fill="white" stroke="black" stroke-width="4.5"/>
<path d="M89.7715 79.723L66.1362 79.723L77.9539 56.2566L89.7715 79.723Z" fill="white" stroke="black" stroke-width="4.5"/>
<path d="M77.9626 57.3096L66.1449 33.8432H89.7803L77.9626 57.3096Z" fill="white" stroke="black" stroke-width="4.5"/>
<path d="M226.508 79.7231L250.143 79.7231L238.326 103.189L226.508 79.7231Z" fill="white" stroke="black" stroke-width="4.5"/>
<path d="M226.508 125.613L238.326 102.146L250.143 125.613L226.508 125.613Z" fill="white" stroke="black" stroke-width="4.5"/>
<path d="M215.136 148.568L203.319 125.101L226.954 125.101L215.136 148.568Z" fill="white" stroke="black" stroke-width="4.5"/>
<path d="M192.393 103.199L180.576 79.7331H204.211L192.393 103.199Z" fill="white" stroke="black" stroke-width="4.5"/>
<path d="M146.478 10.8983L158.296 34.3647H134.66L146.478 10.8983Z" fill="white" stroke="black" stroke-width="4.5"/>
<path d="M157.85 33.8332L181.485 33.8332L169.667 57.2996L157.85 33.8332Z" fill="white" stroke="black" stroke-width="4.5"/>
<path d="M157.85 79.723L169.667 56.2566L181.485 79.723L157.85 79.723Z" fill="white" stroke="black" stroke-width="4.5"/>
<path d="M135.544 79.723L111.909 79.723L123.726 56.2566L135.544 79.723Z" fill="white" stroke="black" stroke-width="4.5"/>
<path d="M123.735 57.3096L111.917 33.8432H135.553L123.735 57.3096Z" fill="white" stroke="black" stroke-width="4.5"/>
<path d="M192.25 10.8983L204.068 34.3647H180.433L192.25 10.8983Z" fill="white" stroke="black" stroke-width="4.5"/>
<path d="M203.622 33.8332L227.257 33.8332L215.44 57.2996L203.622 33.8332Z" fill="white" stroke="black" stroke-width="4.5"/>
<path d="M203.622 79.723L215.439 56.2566L227.257 79.723L203.622 79.723Z" fill="white" stroke="black" stroke-width="4.5"/>
<path d="M192.25 102.678L180.433 79.2116L204.068 79.2116L192.25 102.678Z" fill="white" stroke="black" stroke-width="4.5"/>
<path d="M181.316 79.723L157.681 79.723L169.498 56.2566L181.316 79.723Z" fill="white" stroke="black" stroke-width="4.5"/>
<path d="M169.507 57.3096L157.69 33.8432H181.325L169.507 57.3096Z" fill="white" stroke="black" stroke-width="4.5"/>
<path d="M77.8196 56.7881L89.6373 80.2545H66.0019L77.8196 56.7881Z" fill="white" stroke="black" stroke-width="4.5"/>
<path d="M89.1912 79.7231L112.827 79.7231L101.009 103.189L89.1912 79.7231Z" fill="white" stroke="black" stroke-width="4.5"/>
<path d="M77.8196 148.568L66.0019 125.101L89.6373 125.101L77.8196 148.568Z" fill="white" stroke="black" stroke-width="4.5"/>
<path d="M55.0764 103.199L43.2588 79.7331H66.8941L55.0764 103.199Z" fill="white" stroke="black" stroke-width="4.5"/>
<path d="M54.9335 102.678L66.7511 126.144H43.1158L54.9335 102.678Z" fill="white" stroke="black" stroke-width="4.5"/>
<path d="M66.305 171.503L78.1227 148.036L89.9403 171.503L66.305 171.503Z" fill="white" stroke="black" stroke-width="4.5"/>
<path d="M54.9335 194.458L43.1158 170.991H66.7512L54.9335 194.458Z" fill="white" stroke="black" stroke-width="4.5"/>
<path d="M43.9993 171.503L20.3639 171.503L32.1816 148.036L43.9993 171.503Z" fill="white" stroke="black" stroke-width="4.5"/>
<path d="M32.1903 149.089L20.3726 125.623H44.008L32.1903 149.089Z" fill="white" stroke="black" stroke-width="4.5"/>
<path d="M77.8196 240.347L66.0019 216.881H89.6373L77.8196 240.347Z" fill="white" stroke="black" stroke-width="4.5"/>
<path d="M66.8854 217.393L43.2501 217.393L55.0677 193.926L66.8854 217.393Z" fill="white" stroke="black" stroke-width="4.5"/>
<path d="M100.706 194.458L112.523 217.924H88.888L100.706 194.458Z" fill="white" stroke="black" stroke-width="4.5"/>
<path d="M112.077 217.393L135.713 217.393L123.895 240.859L112.077 217.393Z" fill="white" stroke="black" stroke-width="4.5"/>
<path d="M112.077 263.282L123.895 239.816L135.713 263.282L112.077 263.282Z" fill="white" stroke="black" stroke-width="4.5"/>
<path d="M100.706 286.237L88.8881 262.771H112.523L100.706 286.237Z" fill="white" stroke="black" stroke-width="4.5"/>
<path d="M89.7715 263.282L66.1362 263.282L77.9539 239.816L89.7715 263.282Z" fill="white" stroke="black" stroke-width="4.5"/>
<path d="M77.9626 240.869L66.1449 217.403H89.7803L77.9626 240.869Z" fill="white" stroke="black" stroke-width="4.5"/>
<path d="M157.85 217.393L181.485 217.392L169.667 240.859L157.85 217.393Z" fill="white" stroke="black" stroke-width="4.5"/>
<path d="M157.85 263.282L169.667 239.816L181.485 263.282L157.85 263.282Z" fill="white" stroke="black" stroke-width="4.5"/>
<path d="M146.478 286.237L134.66 262.771H158.296L146.478 286.237Z" fill="white" stroke="black" stroke-width="4.5"/>
<path d="M123.735 240.869L111.917 217.403H135.553L123.735 240.869Z" fill="white" stroke="black" stroke-width="4.5"/>
<path d="M203.622 263.282L215.439 239.816L227.257 263.282L203.622 263.282Z" fill="white" stroke="black" stroke-width="4.5"/>
<path d="M192.25 286.237L180.433 262.771H204.068L192.25 286.237Z" fill="white" stroke="black" stroke-width="4.5"/>
<path d="M181.316 263.282L157.681 263.282L169.498 239.816L181.316 263.282Z" fill="white" stroke="black" stroke-width="4.5"/>
<path d="M169.507 240.869L157.689 217.403H181.325L169.507 240.869Z" fill="white" stroke="black" stroke-width="4.5"/>
<path d="M226.508 217.393L238.326 193.926L250.143 217.393L226.508 217.393Z" fill="white" stroke="black" stroke-width="4.5"/>
<path d="M215.136 240.347L203.319 216.881H226.954L215.136 240.347Z" fill="white" stroke="black" stroke-width="4.5"/>
<path d="M204.202 217.393L180.567 217.393L192.385 193.926L204.202 217.393Z" fill="white" stroke="black" stroke-width="4.5"/>
<path d="M238.023 102.678L249.84 126.144H226.205L238.023 102.678Z" fill="white" stroke="black" stroke-width="4.5"/>
<path d="M249.394 125.613L273.03 125.613L261.212 149.079L249.394 125.613Z" fill="white" stroke="black" stroke-width="4.5"/>
<path d="M249.394 171.503L261.212 148.036L273.03 171.503L249.394 171.503Z" fill="white" stroke="black" stroke-width="4.5"/>
<path d="M238.023 194.458L226.205 170.991H249.84L238.023 194.458Z" fill="white" stroke="black" stroke-width="4.5"/>
<path d="M227.088 171.503L203.453 171.503L215.271 148.036L227.088 171.503Z" fill="white" stroke="black" stroke-width="4.5"/>
<path d="M215.279 149.089L203.462 125.623H227.097L215.279 149.089Z" fill="white" stroke="black" stroke-width="4.5"/>
<line y1="-2" x2="76.8139" y2="-2" transform="matrix(-0.450098 0.892979 -0.88035 -0.474325 112.59 79.4915)" stroke="black" stroke-width="4"/>
<line y1="-2.25" x2="75.1201" y2="-2.25" transform="matrix(-0.435368 -0.900253 0.888324 -0.459218 112.59 213.78)" stroke="black" stroke-width="4.5"/>
<line x1="112.59" y1="215.394" x2="180.803" y2="215.394" stroke="black" stroke-width="4.5"/>
<line y1="-2.25" x2="77.6778" y2="-2.25" transform="matrix(-0.445092 0.895485 -0.883094 -0.469196 213.508 146.153)" stroke="black" stroke-width="4.5"/>
<line y1="-2.25" x2="75.9911" y2="-2.25" transform="matrix(-0.430379 -0.902649 0.890955 -0.454092 215.377 148.085)" stroke="black" stroke-width="4.5"/>
<line x1="111.656" y1="80.1398" x2="181.738" y2="80.1398" stroke="black" stroke-width="4.5"/>
<line y1="-3" x2="157.057" y2="-3" transform="matrix(0.452168 -0.891933 0.879204 0.476445 7 148.085)" stroke="black" stroke-width="6"/>
<line x1="72.4099" y1="7.89832" x2="220.049" y2="7.89832" stroke="black" stroke-width="6"/>
<line x1="218.052" y1="6.64134" x2="289.675" y2="147.641" stroke="black" stroke-width="6"/>
<line x1="218.303" y1="290.687" x2="289.303" y2="144.839" stroke="black" stroke-width="6"/>
<line x1="221.918" y1="289.237" x2="73.3443" y2="289.237" stroke="black" stroke-width="6"/>
<line y1="-3" x2="163.118" y2="-3" transform="matrix(-0.435368 -0.900253 0.888324 -0.459218 78.0164 289.136)" stroke="black" stroke-width="6"/>
</svg>
