<svg width="210" height="210" viewBox="0 0 210 210" fill="none" xmlns="http://www.w3.org/2000/svg">
<g clip-path="url(#clip0_611_17)">
<path fill-rule="evenodd" clip-rule="evenodd" d="M103.276 10L114.549 30.3232L212 205.994L190.254 213L104.026 57.5564C88.1832 87.7433 70.2202 120.985 55.227 148.467C45.9844 165.409 37.8632 180.175 32.0525 190.707C29.147 195.972 26.819 200.179 25.2168 203.071C24.4158 204.516 23.7962 205.633 23.3767 206.389L22.8998 207.248L22.7782 207.467L22.7474 207.523L22.7395 207.537L22.7375 207.54C22.7375 207.54 22.7368 207.542 11.8681 204.032C0.999448 200.523 1 200.522 1 200.522L1.00184 200.518L1.00933 200.505L1.03948 200.45L1.15973 200.234L1.63389 199.38C2.05153 198.628 2.66914 197.514 3.46814 196.072C5.06614 193.188 7.38968 188.989 10.2902 183.732C16.0915 173.219 24.2001 158.476 33.4279 141.561C51.8912 107.718 74.8073 65.2326 92.6902 30.5371L103.276 10Z" fill="black"/>
<path d="M14 203L103.566 33L196 202.62" stroke="white" stroke-width="6"/>
</g>
<path d="M8 143H204" stroke="black" stroke-width="18"/>
<path d="M8 143H204" stroke="white" stroke-width="6"/>
<defs>
<clipPath id="clip0_611_17">
<rect width="160" height="190" fill="white" transform="translate(24 10)"/>
</clipPath>
</defs>
</svg>
