<svg width="275" height="275" viewBox="0 0 275 275" fill="none" xmlns="http://www.w3.org/2000/svg">
<circle cx="137.5" cy="137.5" r="121.5" stroke="black" stroke-width="2"/>
<path d="M241.718 137.5C241.718 195.058 195.058 241.718 137.5 241.718C79.9419 241.718 33.2818 195.058 33.2818 137.5C33.2818 79.9419 79.9419 33.2818 137.5 33.2818C195.058 33.2818 241.718 79.9419 241.718 137.5Z" stroke="white" stroke-width="33"/>
<path d="M226 137C226 185.596 186.382 225 137.5 225C88.6175 225 49 185.596 49 137C49 88.4042 88.6175 49 137.5 49C186.382 49 226 88.4042 226 137Z" stroke="black" stroke-width="2"/>
<circle cx="137.055" cy="137.945" r="38.2" fill="white" stroke="black" stroke-width="2"/>
</svg>
