<svg width="240" height="225" viewBox="0 0 240 225" fill="none" xmlns="http://www.w3.org/2000/svg">
<g clip-path="url(#clip0_8_3)">
<path d="M118.662 109.165L66.2109 14.4072C65.8361 13.7302 66.3097 12.8879 67.0652 12.8879L171.967 12.8879C172.722 12.8879 173.196 13.7302 172.821 14.4072L120.37 109.165C119.992 109.847 119.039 109.847 118.662 109.165Z" fill="white" stroke="black" stroke-width="2"/>
<path d="M119.516 12.4105L119.69 45.4515" stroke="black" stroke-width="2"/>
<path d="M68.6986 12.8881L170.208 12.8881C171.731 12.8881 172.707 14.5971 171.957 15.9513L121.202 107.645C120.453 108.999 118.546 108.972 117.785 107.596L67.0299 15.9027C66.2805 14.5488 67.1998 12.8881 68.6986 12.8881Z" stroke="black" stroke-width="2"/>
<path d="M146.99 62.0449L119.626 45.5665" stroke="black" stroke-width="2"/>
<path d="M172.803 14.4394L120.352 109.197C119.978 109.874 119.042 109.867 118.664 109.185L66.2131 14.4273C65.8354 13.745 66.2979 12.896 67.0474 12.896L171.949 12.896C172.704 12.896 173.181 13.7571 172.803 14.4394Z" stroke="black" stroke-width="2"/>
<path d="M92.042 62.0449L119.69 45.4515" stroke="black" stroke-width="2"/>
<path d="M172.825 208.165L120.374 113.407C119.999 112.73 120.473 111.888 121.228 111.888L226.13 111.888C226.885 111.888 227.359 112.73 226.984 113.407L174.533 208.165C174.156 208.847 173.202 208.847 172.825 208.165Z" fill="white" stroke="black" stroke-width="2"/>
<path d="M173.679 111.41L173.853 144.451" stroke="black" stroke-width="2"/>
<path d="M122.862 111.888L224.371 111.888C225.894 111.888 226.87 113.597 226.12 114.951L175.366 206.645C174.616 207.999 172.709 207.972 171.948 206.596L121.193 114.903C120.444 113.549 121.363 111.888 122.862 111.888Z" stroke="black" stroke-width="2"/>
<path d="M201.153 161.045L173.789 144.566" stroke="black" stroke-width="2"/>
<path d="M226.966 113.439L174.515 208.197C174.141 208.874 173.205 208.867 172.827 208.185L120.376 113.427C119.998 112.745 120.461 111.896 121.21 111.896L226.112 111.896C226.867 111.896 227.344 112.757 226.966 113.439Z" stroke="black" stroke-width="2"/>
<path d="M146.205 161.045L173.853 144.451" stroke="black" stroke-width="2"/>
<path d="M120.874 109.562L173.325 14.8049C173.705 14.1171 174.659 14.1035 175.034 14.7806L227.484 109.537C227.859 110.214 227.371 111.069 226.609 111.069L121.709 111.069C120.959 111.069 120.5 110.239 120.874 109.562Z" fill="white" stroke="black" stroke-width="2"/>
<path d="M201.669 61.9121L174.322 78.5897" stroke="black" stroke-width="2"/>
<path d="M175.07 14.8471L227.518 109.6C227.887 110.267 227.405 111.085 226.643 111.085H121.747C120.985 111.085 120.503 110.267 120.872 109.6L173.32 14.8471C173.7 14.1595 174.689 14.1595 175.07 14.8471Z" stroke="black" stroke-width="2"/>
<path d="M174.195 111.547L174.195 78.5897" stroke="black" stroke-width="2"/>
<path d="M226.681 111.069L121.78 111.069C121.019 111.069 120.531 110.214 120.906 109.537L173.356 14.7806C173.731 14.1036 174.684 14.1171 175.065 14.8049L227.515 109.562C227.89 110.239 227.43 111.069 226.681 111.069Z" stroke="black" stroke-width="2"/>
<path d="M146.721 61.9121L174.322 78.5897" stroke="black" stroke-width="2"/>
<path d="M65.6797 208.561L118.13 113.805C118.511 113.117 119.464 113.103 119.839 113.78L172.289 208.537C172.664 209.214 172.176 210.069 171.414 210.069L66.5141 210.069C65.7646 210.069 65.305 209.238 65.6797 208.561Z" fill="white" stroke="black" stroke-width="2"/>
<path d="M146.474 160.912L119.127 177.589" stroke="black" stroke-width="2"/>
<path d="M119.875 113.847L172.323 208.6C172.692 209.267 172.21 210.084 171.448 210.084H66.5518C65.79 210.084 65.308 209.267 65.6769 208.6L118.125 113.847C118.506 113.159 119.494 113.159 119.875 113.847Z" stroke="black" stroke-width="2"/>
<path d="M119 210.546L119 177.589" stroke="black" stroke-width="2"/>
<path d="M171.486 210.069L66.5857 210.069C65.8242 210.069 65.3363 209.214 65.711 208.537L118.161 113.78C118.536 113.103 119.489 113.117 119.87 113.805L172.32 208.561C172.695 209.238 172.235 210.069 171.486 210.069Z" stroke="black" stroke-width="2"/>
<path d="M91.5262 160.912L119.127 177.589" stroke="black" stroke-width="2"/>
<path d="M11.0008 109.562L63.451 14.8049C63.8317 14.1171 64.7851 14.1035 65.1599 14.7806L117.61 109.537C117.985 110.214 117.497 111.069 116.735 111.069L11.8351 111.069C11.0857 111.069 10.6261 110.239 11.0008 109.562Z" stroke="black" stroke-width="2"/>
<path d="M91.7949 61.9121L64.4484 78.5897" stroke="black" stroke-width="2"/>
<path d="M65.196 14.8471L117.644 109.6C118.013 110.267 117.531 111.085 116.769 111.085H11.8729C11.1111 111.085 10.629 110.267 10.998 109.6L63.4462 14.8471C63.8268 14.1595 64.8154 14.1595 65.196 14.8471Z" stroke="black" stroke-width="2"/>
<path d="M64.3211 111.547L64.3211 78.5897" stroke="black" stroke-width="2"/>
<path d="M116.807 111.069L11.9067 111.069C11.1453 111.069 10.6573 110.214 11.0321 109.537L63.4823 14.7806C63.857 14.1036 64.8105 14.1171 65.1912 14.8049L117.641 109.562C118.016 110.239 117.556 111.069 116.807 111.069Z" stroke="black" stroke-width="2"/>
<path d="M36.8473 61.9121L64.4484 78.5897" stroke="black" stroke-width="2"/>
<path d="M11.0008 109.562L63.451 14.8049C63.8317 14.1171 64.7851 14.1035 65.1599 14.7806L117.61 109.537C117.985 110.214 117.497 111.069 116.735 111.069L11.8351 111.069C11.0857 111.069 10.6261 110.239 11.0008 109.562Z" fill="white" stroke="black" stroke-width="2"/>
<path d="M91.7949 61.9121L64.4484 78.5897" stroke="black" stroke-width="2"/>
<path d="M65.196 14.8471L117.644 109.6C118.013 110.267 117.531 111.085 116.769 111.085H11.8729C11.1111 111.085 10.629 110.267 10.998 109.6L63.4462 14.8471C63.8268 14.1595 64.8154 14.1595 65.196 14.8471Z" stroke="black" stroke-width="2"/>
<path d="M64.3211 111.547L64.3211 78.5897" stroke="black" stroke-width="2"/>
<path d="M116.807 111.069L11.9067 111.069C11.1453 111.069 10.6573 110.214 11.0321 109.537L63.4823 14.7806C63.857 14.1036 64.8105 14.1171 65.1912 14.8049L117.641 109.562C118.016 110.239 117.556 111.069 116.807 111.069Z" stroke="black" stroke-width="2"/>
<path d="M36.8473 61.9121L64.4484 78.5897" stroke="black" stroke-width="2"/>
<path d="M63.4668 208.165L11.0161 113.407C10.6414 112.73 11.115 111.888 11.8704 111.888L116.772 111.888C117.527 111.888 118.001 112.73 117.626 113.407L65.1754 208.165C64.7977 208.847 63.8445 208.847 63.4668 208.165Z" fill="white" stroke="black" stroke-width="2"/>
<path d="M64.3211 111.41L64.495 144.451" stroke="black" stroke-width="2"/>
<path d="M13.5038 111.888L115.013 111.888C116.536 111.888 117.512 113.597 116.762 114.951L66.0077 206.645C65.2582 207.999 63.3513 207.972 62.5898 206.596L11.8352 114.903C11.0857 113.549 12.005 111.888 13.5038 111.888Z" stroke="black" stroke-width="2"/>
<path d="M91.795 161.045L64.4314 144.566" stroke="black" stroke-width="2"/>
<path d="M117.608 113.439L65.1576 208.197C64.7828 208.874 63.8467 208.867 63.469 208.185L11.0183 113.427C10.6406 112.745 11.1031 111.896 11.8526 111.896L116.754 111.896C117.509 111.896 117.986 112.757 117.608 113.439Z" stroke="black" stroke-width="2"/>
<path d="M36.8472 161.045L64.495 144.451" stroke="black" stroke-width="2"/>
</g>
<defs>
<clipPath id="clip0_8_3">
<rect width="240" height="225" fill="white"/>
</clipPath>
</defs>
</svg>
