<svg width="248" height="395" viewBox="0 0 248 395" fill="none" xmlns="http://www.w3.org/2000/svg">
<g clip-path="url(#clip0_8_2)">
<path d="M19.4641 195.5C17.9245 195.5 16.9623 193.833 17.7321 192.5L122.521 11C123.291 9.66667 125.215 9.66667 125.985 11L230.774 192.5C231.544 193.833 230.582 195.5 229.042 195.5L19.4641 195.5Z" fill="white" stroke="black" stroke-width="2"/>
<path d="M177.514 102.25L124.5 133.247" stroke="black" stroke-width="2"/>
<path d="M122.521 11C123.291 9.66666 125.215 9.66667 125.985 11L230.774 192.5C231.544 193.833 230.582 195.5 229.042 195.5H19.4641C17.9245 195.5 16.9623 193.833 17.7321 192.5L122.521 11Z" stroke="black" stroke-width="2"/>
<path d="M124.253 194.5L124.253 133.247" stroke="black" stroke-width="2"/>
<path d="M230.774 192.5C231.544 193.833 230.582 195.5 229.042 195.5L19.4642 195.5C17.9246 195.5 16.9624 193.833 17.7322 192.5L122.521 11C123.291 9.66669 125.216 9.6667 125.985 11L230.774 192.5Z" stroke="black" stroke-width="2"/>
<path d="M70.9927 102.25L124.5 133.247" stroke="black" stroke-width="2"/>
<path d="M125.985 379.747C125.215 381.08 123.291 381.08 122.521 379.747L17.7321 198.247C16.9623 196.913 17.9245 195.247 19.4641 195.247L229.042 195.247C230.582 195.247 231.544 196.913 230.774 198.247L125.985 379.747Z" fill="white" stroke="black" stroke-width="2"/>
<path d="M124.253 196.247L124.59 257.656" stroke="black" stroke-width="2"/>
<path d="M18.5981 199.747C17.4434 197.747 18.8868 195.247 21.1962 195.247L227.31 195.247C229.62 195.247 231.063 197.747 229.908 199.747L126.851 378.247C125.697 380.247 122.81 380.247 121.655 378.247L18.5981 199.747Z" stroke="black" stroke-width="2"/>
<path d="M177.514 288.497L124.467 257.87" stroke="black" stroke-width="2"/>
<path d="M229.042 195.247C230.582 195.247 231.544 196.913 230.774 198.247L125.985 379.747C125.216 381.08 123.291 381.08 122.521 379.747L17.7322 198.247C16.9623 196.913 17.9246 195.247 19.4642 195.247L229.042 195.247Z" stroke="black" stroke-width="2"/>
<path d="M70.9927 288.497L124.59 257.656" stroke="black" stroke-width="2"/>
</g>
<defs>
<clipPath id="clip0_8_2">
<rect width="248" height="395" fill="white"/>
</clipPath>
</defs>
</svg>
