<svg width="275" height="275" viewBox="0 0 275 275" fill="none" xmlns="http://www.w3.org/2000/svg">
<path d="M99.0004 53L137.5 30.7734L176 53L137.5 75.2266L99.0004 53Z" fill="white" stroke="black" stroke-width="10"/>
<path d="M99.0004 222L137.5 199.773L176 222L137.5 244.227L99.0004 222Z" fill="white" stroke="black" stroke-width="10"/>
<path d="M191.429 61.9083L229.928 84.1367L229.929 128.592L191.43 106.363L191.429 61.9083Z" fill="white" stroke="black" stroke-width="10"/>
<path d="M45.0709 146.408L83.5695 168.637L83.5705 213.092L45.0719 190.863L45.0709 146.408Z" fill="white" stroke="black" stroke-width="10"/>
<path d="M229.929 146.408L229.928 190.863L191.429 213.092L191.43 168.637L229.929 146.408Z" fill="white" stroke="black" stroke-width="10"/>
<path d="M83.5706 61.9083L83.5696 106.363L45.071 128.592L45.072 84.1366L83.5706 61.9083Z" fill="white" stroke="black" stroke-width="10"/>
</svg>
