<svg width="251" height="271" viewBox="0 0 251 271" fill="none" xmlns="http://www.w3.org/2000/svg">
<path d="M75.0004 53L113.5 30.7734L152 53L113.5 75.2266L75.0004 53Z" fill="white" stroke="black" stroke-width="10"/>
<path d="M75.0004 222L113.5 199.773L152 222L113.5 244.227L75.0004 222Z" fill="white" stroke="black" stroke-width="10"/>
<path d="M167.429 61.9083L205.928 84.1367L205.929 128.592L167.43 106.363L167.429 61.9083Z" fill="white" stroke="black" stroke-width="10"/>
<path d="M21.0709 146.408L59.5695 168.637L59.5705 213.092L21.0719 190.863L21.0709 146.408Z" fill="white" stroke="black" stroke-width="10"/>
<path d="M205.929 146.408L205.928 190.863L167.429 213.092L167.43 168.637L205.929 146.408Z" fill="white" stroke="black" stroke-width="10"/>
<path d="M59.5706 61.9083L59.5696 106.363L21.071 128.592L21.072 84.1366L59.5706 61.9083Z" fill="white" stroke="black" stroke-width="10"/>
</svg>
