<svg width="300" height="300" viewBox="0 0 300 300" fill="none" xmlns="http://www.w3.org/2000/svg">
<mask id="path-1-inside-1_402_2" fill="white">
<path fill-rule="evenodd" clip-rule="evenodd" d="M50 39H88.4615V98.94H103.846V39H142.308V98.94H157.692V39H196.154V98.94H211.538V39H250V98.94V105.6V132.24H220.33V216.6H78.5714V132.24H50V105.6V98.94V39ZM247.802 234.36H50V261H247.802V234.36Z"/>
</mask>
<path fill-rule="evenodd" clip-rule="evenodd" d="M50 39H88.4615V98.94H103.846V39H142.308V98.94H157.692V39H196.154V98.94H211.538V39H250V98.94V105.6V132.24H220.33V216.6H78.5714V132.24H50V105.6V98.94V39ZM247.802 234.36H50V261H247.802V234.36Z" fill="white"/>
<path d="M88.4615 39H94.4615V33H88.4615V39ZM50 39V33H44V39H50ZM88.4615 98.94H82.4615V104.94H88.4615V98.94ZM103.846 98.94V104.94H109.846V98.94H103.846ZM103.846 39V33H97.8462V39H103.846ZM142.308 39H148.308V33H142.308V39ZM142.308 98.94H136.308V104.94H142.308V98.94ZM157.692 98.94V104.94H163.692V98.94H157.692ZM157.692 39V33H151.692V39H157.692ZM196.154 39H202.154V33H196.154V39ZM196.154 98.94H190.154V104.94H196.154V98.94ZM211.538 98.94V104.94H217.538V98.94H211.538ZM211.538 39V33H205.538V39H211.538ZM250 39H256V33H250V39ZM250 132.24V138.24H256V132.24H250ZM220.33 132.24V126.24H214.33V132.24H220.33ZM220.33 216.6V222.6H226.33V216.6H220.33ZM78.5714 216.6H72.5714V222.6H78.5714V216.6ZM78.5714 132.24H84.5714V126.24H78.5714V132.24ZM50 132.24H44V138.24H50V132.24ZM50 234.36V228.36H44V234.36H50ZM247.802 234.36H253.802V228.36H247.802V234.36ZM50 261H44V267H50V261ZM247.802 261V267H253.802V261H247.802ZM88.4615 33H50V45H88.4615V33ZM94.4615 98.94V39H82.4615V98.94H94.4615ZM103.846 92.94H88.4615V104.94H103.846V92.94ZM97.8462 39V98.94H109.846V39H97.8462ZM142.308 33H103.846V45H142.308V33ZM148.308 98.94V39H136.308V98.94H148.308ZM157.692 92.94H142.308V104.94H157.692V92.94ZM151.692 39V98.94H163.692V39H151.692ZM196.154 33H157.692V45H196.154V33ZM202.154 98.94V39H190.154V98.94H202.154ZM211.538 92.94H196.154V104.94H211.538V92.94ZM205.538 39V98.94H217.538V39H205.538ZM250 33H211.538V45H250V33ZM256 98.94V39H244V98.94H256ZM256 105.6V98.94H244V105.6H256ZM256 132.24V105.6H244V132.24H256ZM220.33 138.24H250V126.24H220.33V138.24ZM226.33 216.6V132.24H214.33V216.6H226.33ZM78.5714 222.6H220.33V210.6H78.5714V222.6ZM72.5714 132.24V216.6H84.5714V132.24H72.5714ZM50 138.24H78.5714V126.24H50V138.24ZM44 105.6V132.24H56V105.6H44ZM44 98.94V105.6H56V98.94H44ZM44 39V98.94H56V39H44ZM50 240.36H247.802V228.36H50V240.36ZM56 261V234.36H44V261H56ZM247.802 255H50V267H247.802V255ZM241.802 234.36V261H253.802V234.36H241.802Z" fill="black" mask="url(#path-1-inside-1_402_2)"/>
</svg>
