<svg width="300" height="350" viewBox="0 0 300 350" fill="none" xmlns="http://www.w3.org/2000/svg">
<path d="M106.024 30.482L135.5 13.4641L164.976 30.482V64.5179L135.5 81.5359L106.024 64.5179V30.482Z" fill="white" stroke="black" stroke-width="6"/>
<path d="M136.024 81.482L165.5 64.4641L194.976 81.482V115.518L165.5 132.536L136.024 115.518V81.482Z" fill="white" stroke="black" stroke-width="6"/>
<path d="M107.024 132.482L136.5 115.464L165.976 132.482V166.518L136.5 183.536L107.024 166.518V132.482Z" fill="white" stroke="black" stroke-width="6"/>
<path d="M136.024 183.482L165.5 166.464L194.976 183.482V217.518L165.5 234.536L136.024 217.518V183.482Z" fill="white" stroke="black" stroke-width="6"/>
<path d="M107.024 234.482L136.5 217.464L165.976 234.482V268.518L136.5 285.536L107.024 268.518V234.482Z" fill="white" stroke="black" stroke-width="6"/>
<path d="M136.024 285.482L165.5 268.464L194.976 285.482V319.518L165.5 336.536L136.024 319.518V285.482Z" fill="white" stroke="black" stroke-width="6"/>
</svg>
