<svg width="286" height="276" viewBox="0 0 286 276" fill="none" xmlns="http://www.w3.org/2000/svg">
<g clip-path="url(#clip0_8_4)">
<path d="M140.636 241.613L80.2079 132.444C79.8331 131.767 80.3068 130.925 81.0622 130.925L201.918 130.925C202.674 130.925 203.147 131.767 202.772 132.444L142.344 241.613C141.967 242.296 141.014 242.296 140.636 241.613Z" fill="white" stroke="black" stroke-width="2"/>
<path d="M141.49 130.524L141.689 168.285" stroke="black" stroke-width="2"/>
<path d="M81.027 133.94C80.2775 132.586 81.1968 130.925 82.6956 130.925L200.16 130.925C201.682 130.925 202.658 132.634 201.909 133.988L143.177 240.094C142.427 241.448 140.52 241.421 139.759 240.045L81.027 133.94Z" stroke="black" stroke-width="2"/>
<path d="M172.889 187.249L141.616 168.417" stroke="black" stroke-width="2"/>
<path d="M201.9 130.933C202.656 130.933 203.132 131.794 202.755 132.476L142.327 241.646C141.952 242.323 141.016 242.316 140.638 241.634L80.2102 132.464C79.8325 131.782 80.295 130.933 81.0444 130.933L201.9 130.933Z" stroke="black" stroke-width="2"/>
<path d="M110.092 187.249L141.689 168.285" stroke="black" stroke-width="2"/>
<path d="M80.7821 129.772L141.21 20.6032C141.59 19.9155 142.544 19.9019 142.919 20.579L203.346 129.748C203.721 130.425 203.233 131.279 202.471 131.279L81.6164 131.279C80.867 131.279 80.4074 130.449 80.7821 129.772Z" fill="white" stroke="black" stroke-width="2"/>
<path d="M173.478 74.9548L142.225 94.0149" stroke="black" stroke-width="2"/>
<path d="M141.205 20.6455C141.585 19.9579 142.574 19.9579 142.955 20.6455L203.38 129.811C203.749 130.477 203.267 131.295 202.505 131.295H81.6542C80.8924 131.295 80.4103 130.477 80.7793 129.811L141.205 20.6455Z" stroke="black" stroke-width="2"/>
<path d="M142.08 131.68L142.08 94.0149" stroke="black" stroke-width="2"/>
<path d="M203.377 129.772C203.752 130.449 203.292 131.279 202.543 131.279L81.688 131.279C80.9266 131.279 80.4387 130.425 80.8134 129.748L141.241 20.579C141.616 19.9019 142.569 19.9155 142.95 20.6033L203.377 129.772Z" stroke="black" stroke-width="2"/>
<path d="M110.681 74.9548L142.225 94.0149" stroke="black" stroke-width="2"/>
<path d="M18.4302 241.541L78.8577 132.373C79.2384 131.685 80.1918 131.671 80.5666 132.349L140.994 241.517C141.369 242.194 140.881 243.049 140.119 243.049L19.2645 243.049C18.5151 243.049 18.0555 242.218 18.4302 241.541Z" fill="white" stroke="black" stroke-width="2"/>
<path d="M111.127 186.724L79.8733 205.785" stroke="black" stroke-width="2"/>
<path d="M78.8529 132.415C79.2335 131.727 80.2221 131.727 80.6027 132.415L141.028 241.58C141.397 242.247 140.915 243.064 140.153 243.064H19.3023C18.5405 243.064 18.0584 242.247 18.4273 241.58L78.8529 132.415Z" stroke="black" stroke-width="2"/>
<path d="M79.7278 243.449L79.7278 205.785" stroke="black" stroke-width="2"/>
<path d="M141.025 241.541C141.4 242.218 140.941 243.049 140.191 243.049L19.3361 243.049C18.5747 243.049 18.0867 242.194 18.4615 241.517L78.889 132.349C79.2638 131.672 80.2172 131.685 80.5979 132.373L141.025 241.541Z" stroke="black" stroke-width="2"/>
<path d="M48.3291 186.724L79.8733 205.785" stroke="black" stroke-width="2"/>
<path d="M142.43 241.541L202.858 132.373C203.238 131.685 204.192 131.671 204.567 132.349L264.994 241.517C265.369 242.194 264.881 243.049 264.119 243.049L143.265 243.049C142.515 243.049 142.055 242.218 142.43 241.541Z" fill="white" stroke="black" stroke-width="2"/>
<path d="M235.126 186.724L203.873 205.784" stroke="black" stroke-width="2"/>
<path d="M202.853 132.415C203.233 131.727 204.222 131.727 204.603 132.415L265.028 241.58C265.397 242.247 264.915 243.064 264.153 243.064H143.302C142.54 243.064 142.058 242.247 142.427 241.58L202.853 132.415Z" stroke="black" stroke-width="2"/>
<path d="M203.728 243.449L203.728 205.784" stroke="black" stroke-width="2"/>
<path d="M265.025 241.541C265.4 242.218 264.94 243.049 264.191 243.049L143.336 243.049C142.575 243.049 142.087 242.194 142.462 241.517L202.889 132.349C203.264 131.672 204.217 131.685 204.598 132.373L265.025 241.541Z" stroke="black" stroke-width="2"/>
<path d="M172.329 186.724L203.873 205.785" stroke="black" stroke-width="2"/>
</g>
<defs>
<clipPath id="clip0_8_4">
<rect width="286" height="276" fill="white"/>
</clipPath>
</defs>
</svg>
