<svg width="240" height="240" viewBox="0 0 240 240" fill="none" xmlns="http://www.w3.org/2000/svg">
<path d="M106.102 187.581L122.508 159.173C115.259 159.65 108.025 158.053 101.652 154.568C95.2782 151.083 90.029 145.855 86.5185 139.496L58.749 91.42C54.2579 100.723 51.9446 110.927 51.9847 121.257C52.0248 131.588 54.4172 141.774 58.9803 151.042C63.5435 160.31 70.1576 168.417 78.3208 174.748C86.484 181.079 95.9905 185.467 106.102 187.581ZM125.015 188.822C135.318 188.063 145.312 184.968 154.24 179.769C163.168 174.571 170.794 167.407 176.539 158.822C182.284 150.236 185.997 140.454 187.397 130.218C188.797 119.983 187.846 109.563 184.617 99.75H151.807C156.018 106.036 158.261 113.434 158.25 121C158.261 127.942 156.374 134.756 152.793 140.703L125.015 188.822ZM138.215 131.948L138.402 131.625C140.259 128.41 141.24 124.764 141.249 121.051C141.257 117.339 140.293 113.689 138.452 110.464C136.612 107.24 133.958 104.555 130.756 102.675C127.555 100.796 123.916 99.788 120.204 99.7522C116.491 99.7164 112.834 100.654 109.597 102.471C106.359 104.289 103.654 106.922 101.752 110.11C99.849 113.298 98.8147 116.929 98.7518 120.641C98.689 124.354 99.5998 128.017 101.393 131.268L101.598 131.625C103.445 134.83 106.097 137.498 109.293 139.363C112.488 141.228 116.115 142.227 119.814 142.259C123.514 142.292 127.158 141.358 130.385 139.549C133.613 137.741 136.312 135.12 138.215 131.948ZM69.2975 75.678L85.694 104.068C88.8537 97.6676 93.7412 92.2791 99.8038 88.5117C105.866 84.7444 112.862 82.7486 120 82.75H176.227C169.995 73.5788 161.612 66.0726 151.811 60.8868C142.01 55.701 131.088 52.9933 120 53C110.426 52.9892 100.959 55.0051 92.22 58.9152C83.4812 62.8253 75.6691 68.5326 69.2975 75.678ZM120 206C73.0545 206 35 167.945 35 121C35 74.0545 73.0545 36 120 36C166.945 36 205 74.0545 205 121C205 167.945 166.945 206 120 206Z" fill="black"/>
<path d="M103.323 200.897L123.009 166.808C114.311 167.38 105.63 165.463 97.982 161.282C90.3338 157.1 84.0349 150.826 79.8222 143.195L46.4988 85.504C41.1095 96.6678 38.3336 108.912 38.3817 121.309C38.4298 133.706 41.3006 145.928 46.7764 157.05C52.2522 168.172 60.1891 177.9 69.985 185.497C79.7808 193.094 91.1885 198.361 103.323 200.897ZM126.018 202.386C138.381 201.476 150.375 197.761 161.088 191.523C171.801 185.286 180.952 176.689 187.847 166.386C194.741 156.083 199.197 144.344 200.877 132.062C202.556 119.779 201.415 107.276 197.54 95.5H158.168C163.222 103.043 165.913 111.921 165.9 121C165.913 129.331 163.649 137.507 159.352 144.644L126.018 202.386ZM141.859 134.138L142.083 133.75C144.31 129.892 145.488 125.517 145.498 121.062C145.509 116.607 144.352 112.226 142.143 108.357C139.934 104.488 136.75 101.266 132.908 99.0104C129.065 96.755 124.699 95.5456 120.244 95.5026C115.789 95.4597 111.401 96.5846 107.516 98.7655C103.631 100.946 100.385 104.107 98.1021 107.933C95.8188 111.758 94.5776 116.115 94.5022 120.57C94.4267 125.024 95.5197 129.421 97.6722 133.322L97.917 133.75C100.134 137.597 103.317 140.797 107.151 143.036C110.985 145.274 115.337 146.472 119.777 146.511C124.216 146.55 128.589 145.429 132.462 143.259C136.335 141.089 139.574 137.944 141.859 134.138ZM59.157 66.6136L78.8328 100.682C82.6244 93.0012 88.4894 86.5349 95.7645 82.0141C103.04 77.4932 111.435 75.0983 120 75.1H187.473C179.994 64.0945 169.935 55.0871 158.173 48.8641C146.412 42.6412 133.306 39.3919 120 39.4C108.512 39.387 97.1506 41.8061 86.664 46.4983C76.1775 51.1904 66.803 58.0391 59.157 66.6136ZM120 223C63.6654 223 18 177.335 18 121C18 64.6654 63.6654 19 120 19C176.335 19 222 64.6654 222 121C222 177.335 176.335 223 120 223Z" fill="black"/>
<path d="M104.049 194.522L122.288 162.94C114.229 163.47 106.187 161.694 99.101 157.82C92.0152 153.945 86.1794 148.133 82.2765 141.063L51.4033 87.614C46.4103 97.957 43.8384 109.301 43.883 120.786C43.9276 132.271 46.5873 143.595 51.6605 153.899C56.7337 164.203 64.087 173.216 73.1626 180.255C82.2381 187.293 92.807 192.172 104.049 194.522ZM125.076 195.902C136.53 195.059 147.642 191.617 157.567 185.838C167.492 180.059 175.971 172.094 182.358 162.549C188.745 153.003 192.874 142.128 194.43 130.749C195.986 119.369 194.929 107.785 191.339 96.875H154.862C159.544 103.864 162.037 112.088 162.025 120.5C162.037 128.218 159.939 135.793 155.958 142.405L125.076 195.902ZM139.751 132.672L139.959 132.313C142.023 128.738 143.114 124.685 143.124 120.557C143.133 116.43 142.061 112.371 140.015 108.787C137.968 105.203 135.018 102.217 131.458 100.127C127.899 98.0377 123.854 96.9173 119.727 96.8775C115.599 96.8376 111.533 97.8799 107.934 99.9004C104.335 101.921 101.328 104.849 99.2122 108.393C97.0968 111.938 95.9469 115.974 95.877 120.101C95.8071 124.228 96.8197 128.302 98.814 131.916L99.0408 132.313C101.095 135.876 104.044 138.842 107.596 140.915C111.148 142.989 115.18 144.099 119.293 144.135C123.406 144.172 127.458 143.133 131.046 141.122C134.634 139.112 137.635 136.199 139.751 132.672ZM63.1307 70.1126L81.3598 101.676C84.8726 94.5599 90.3064 88.5691 97.0466 84.3807C103.787 80.1923 111.564 77.9734 119.5 77.975H182.012C175.083 67.7787 165.763 59.4336 154.867 53.6682C143.97 47.9029 131.828 44.8925 119.5 44.9C108.856 44.888 98.3307 47.1292 88.6152 51.4763C78.8997 55.8235 70.2145 62.1685 63.1307 70.1126ZM119.5 215C67.3076 215 25 172.692 25 120.5C25 68.3076 67.3076 26 119.5 26C171.692 26 214 68.3076 214 120.5C214 172.692 171.692 215 119.5 215Z" fill="white"/>
</svg>
