<svg width="240" height="240" viewBox="0 0 240 240" fill="none" xmlns="http://www.w3.org/2000/svg">
<path d="M106.011 185.122L121.934 157.551C114.899 158.013 107.877 156.463 101.691 153.081C95.5053 149.698 90.4105 144.624 87.0032 138.452L60.0505 91.79C55.6915 100.82 53.4463 110.723 53.4852 120.75C53.5241 130.777 55.8461 140.663 60.275 149.658C64.704 158.653 71.1235 166.522 79.0467 172.667C86.9698 178.812 96.1966 183.071 106.011 185.122ZM124.368 186.327C134.367 185.591 144.068 182.586 152.733 177.541C161.398 172.496 168.8 165.542 174.376 157.209C179.952 148.876 183.556 139.382 184.915 129.447C186.273 119.513 185.351 109.399 182.216 99.875H150.371C154.459 105.976 156.636 113.156 156.625 120.5C156.636 127.238 154.804 133.851 151.328 139.623L124.368 186.327ZM137.18 131.126L137.361 130.812C139.163 127.692 140.115 124.153 140.124 120.55C140.132 116.946 139.197 113.404 137.41 110.274C135.623 107.145 133.048 104.539 129.94 102.714C126.832 100.89 123.301 99.9119 119.698 99.8771C116.094 99.8424 112.545 100.752 109.403 102.516C106.26 104.28 103.635 106.837 101.788 109.931C99.9416 113.025 98.9378 116.549 98.8768 120.152C98.8158 123.755 99.6998 127.311 101.441 130.466L101.639 130.812C103.432 133.924 106.006 136.513 109.107 138.323C112.209 140.133 115.729 141.102 119.32 141.134C122.91 141.166 126.447 140.259 129.58 138.504C132.712 136.748 135.332 134.205 137.18 131.126ZM70.2887 76.511L86.203 104.066C89.2697 97.8539 94.0135 92.6238 99.8978 88.9673C105.782 85.3107 112.572 83.3736 119.5 83.375H174.074C168.025 74.4735 159.888 67.1881 150.376 62.1548C140.863 57.1215 130.262 54.4935 119.5 54.5C110.208 54.4895 101.019 56.4461 92.5371 60.2412C84.0553 64.0364 76.473 69.5757 70.2887 76.511ZM119.5 203C73.9353 203 37 166.065 37 120.5C37 74.9353 73.9353 38 119.5 38C165.065 38 202 74.9353 202 120.5C202 166.065 165.065 203 119.5 203Z" fill="black"/>
<path d="M103.323 200.897L123.009 166.808C114.311 167.38 105.63 165.463 97.982 161.282C90.3338 157.1 84.0349 150.826 79.8222 143.195L46.4988 85.504C41.1095 96.6678 38.3336 108.912 38.3817 121.309C38.4298 133.706 41.3006 145.928 46.7764 157.05C52.2522 168.172 60.1891 177.9 69.985 185.497C79.7808 193.094 91.1885 198.361 103.323 200.897ZM126.018 202.386C138.381 201.476 150.375 197.761 161.088 191.523C171.801 185.286 180.952 176.689 187.847 166.386C194.741 156.083 199.197 144.344 200.877 132.062C202.556 119.779 201.415 107.276 197.54 95.5H158.168C163.222 103.043 165.913 111.921 165.9 121C165.913 129.331 163.649 137.507 159.352 144.644L126.018 202.386ZM141.859 134.138L142.083 133.75C144.31 129.892 145.488 125.517 145.498 121.062C145.509 116.607 144.352 112.226 142.143 108.357C139.934 104.488 136.75 101.266 132.908 99.0104C129.065 96.755 124.699 95.5456 120.244 95.5026C115.789 95.4597 111.401 96.5846 107.516 98.7655C103.631 100.946 100.385 104.107 98.1021 107.933C95.8188 111.758 94.5776 116.115 94.5022 120.57C94.4267 125.024 95.5197 129.421 97.6722 133.322L97.917 133.75C100.134 137.597 103.317 140.797 107.151 143.036C110.985 145.274 115.337 146.472 119.777 146.511C124.216 146.55 128.589 145.429 132.462 143.259C136.335 141.089 139.574 137.944 141.859 134.138ZM59.157 66.6136L78.8328 100.682C82.6244 93.0012 88.4894 86.5349 95.7645 82.0141C103.04 77.4932 111.435 75.0983 120 75.1H187.473C179.994 64.0945 169.935 55.0871 158.173 48.8641C146.412 42.6412 133.306 39.3919 120 39.4C108.512 39.387 97.1506 41.8061 86.664 46.4983C76.1775 51.1904 66.803 58.0391 59.157 66.6136ZM120 223C63.6654 223 18 177.335 18 121C18 64.6654 63.6654 19 120 19C176.335 19 222 64.6654 222 121C222 177.335 176.335 223 120 223Z" fill="black"/>
<path d="M104.049 194.522L122.288 162.94C114.229 163.47 106.187 161.694 99.101 157.82C92.0152 153.945 86.1794 148.133 82.2765 141.063L51.4033 87.614C46.4103 97.957 43.8384 109.301 43.883 120.786C43.9276 132.271 46.5873 143.595 51.6605 153.899C56.7337 164.203 64.087 173.216 73.1626 180.255C82.2381 187.293 92.807 192.172 104.049 194.522ZM125.076 195.902C136.53 195.059 147.642 191.617 157.567 185.838C167.492 180.059 175.971 172.094 182.358 162.549C188.745 153.003 192.874 142.128 194.43 130.749C195.986 119.369 194.929 107.785 191.339 96.875H154.862C159.544 103.864 162.037 112.088 162.025 120.5C162.037 128.218 159.939 135.793 155.958 142.405L125.076 195.902ZM139.751 132.672L139.959 132.313C142.023 128.738 143.114 124.685 143.124 120.557C143.133 116.43 142.061 112.371 140.015 108.787C137.968 105.203 135.018 102.217 131.458 100.127C127.899 98.0377 123.854 96.9173 119.727 96.8775C115.599 96.8376 111.533 97.8799 107.934 99.9004C104.335 101.921 101.328 104.849 99.2122 108.393C97.0968 111.938 95.9469 115.974 95.877 120.101C95.8071 124.228 96.8197 128.302 98.814 131.916L99.0408 132.313C101.095 135.876 104.044 138.842 107.596 140.915C111.148 142.989 115.18 144.099 119.293 144.135C123.406 144.172 127.458 143.133 131.046 141.122C134.634 139.112 137.635 136.199 139.751 132.672ZM63.1307 70.1126L81.3598 101.676C84.8726 94.5599 90.3064 88.5691 97.0466 84.3807C103.787 80.1923 111.564 77.9734 119.5 77.975H182.012C175.083 67.7787 165.763 59.4336 154.867 53.6682C143.97 47.9029 131.828 44.8925 119.5 44.9C108.856 44.888 98.3307 47.1292 88.6152 51.4763C78.8997 55.8235 70.2145 62.1685 63.1307 70.1126ZM119.5 215C67.3076 215 25 172.692 25 120.5C25 68.3076 67.3076 26 119.5 26C171.692 26 214 68.3076 214 120.5C214 172.692 171.692 215 119.5 215Z" fill="white"/>
</svg>
