<svg width="300" height="300" viewBox="0 0 300 300" fill="none" xmlns="http://www.w3.org/2000/svg">
<path d="M156.966 40.916L156.908 40.4249L156.755 39.9546C155.972 37.5456 154.527 35.5228 152.504 34.0028L149.5 38L152.504 34.0028C149.234 31.5455 144.522 30.456 139.928 33.2125C139.314 33.5807 135.859 35.6754 136.003 40.1605C137.126 75.1181 138.862 109.588 141.213 144.454C137.203 145.305 133.226 146.299 129.284 147.435C115.654 116.609 102.261 85.6479 89.1048 54.5517L88.3495 52.7665L86.5882 51.957C81.6742 49.6982 75.8747 48.2391 71.2471 51.3242C66.5989 54.423 65.7596 60.3452 66.0052 65.7279L66.0439 66.5764L66.3606 67.3645C78.6881 98.0387 90.1828 128.902 100.845 159.955C98.1413 161.392 95.5476 162.997 93.0653 164.77C78.5663 149.222 63.9078 133.805 49.09 118.52L48.035 117.432L46.5534 117.112C43.6335 116.483 40.8528 116.177 38.3977 116.456C35.9286 116.735 33.178 117.694 31.3432 120.176C29.5317 122.627 29.3874 125.522 29.7718 127.954C30.1585 130.401 31.1686 133.034 32.5333 135.747L32.7811 136.239L33.1302 136.666L46.6302 153.166L60.0115 169.521C77.9331 195.128 94.1156 221.886 108.559 249.798L108.609 249.893L108.662 249.987C113.883 259.095 121.829 264.662 132.157 266.428L133.207 266.608L134.24 266.344C155.916 260.796 177.235 254.249 198.194 246.704L199.704 246.161L200.616 244.839C218.97 218.236 240.214 194.028 264.353 172.209L265.188 171.455L265.619 170.415C266.978 167.136 267.91 164.041 268.124 161.275C268.337 158.531 267.884 155.311 265.471 152.899C263.095 150.522 259.898 150.019 257.162 150.144C254.374 150.27 251.208 151.072 247.807 152.295L246.971 152.596L246.29 153.166C235.074 162.557 223.921 172.029 212.832 181.581C211.389 169.661 209.969 157.741 208.572 145.819C215.184 119.085 222.254 92.4666 229.782 65.9643C230.752 62.9746 230.74 59.9057 229.743 56.9181L229.276 55.5178L228.123 54.5957C224.989 52.0884 221.421 50.5 217.5 50.5C213.579 50.5 210.011 52.0884 206.877 54.5957L205.632 55.5912L205.193 57.1232C197.827 82.84 190.264 108.499 182.503 134.1C182.503 134.101 182.502 134.101 182.502 134.101L182.355 134.13L182.211 134.169C178.943 135.041 175.664 135.842 172.376 136.572C165.884 104.952 160.747 73.0676 156.966 40.916Z" fill="white" stroke="black" stroke-width="10"/>
</svg>
