<svg width="300" height="300" viewBox="0 0 300 300" fill="none" xmlns="http://www.w3.org/2000/svg">
<mask id="path-1-inside-1_402_2" fill="white">
<path fill-rule="evenodd" clip-rule="evenodd" d="M49 38H89.46V97.94H102.846V38H143.306V97.94H156.692V38H197.152V97.94H210.538V38H250.998V97.94H251V133.24H221.331V217.6H77.5714V133.24H49V106.6V97.94V38ZM249 225H49V262H249V225Z"/>
</mask>
<path fill-rule="evenodd" clip-rule="evenodd" d="M49 38H89.46V97.94H102.846V38H143.306V97.94H156.692V38H197.152V97.94H210.538V38H250.998V97.94H251V133.24H221.331V217.6H77.5714V133.24H49V106.6V97.94V38ZM249 225H49V262H249V225Z" fill="black"/>
<path d="M89.46 38H99.46V28H89.46V38ZM49 38V28H39V38H49ZM89.46 97.94H79.46V107.94H89.46V97.94ZM102.846 97.94V107.94H112.846V97.94H102.846ZM102.846 38V28H92.8462V38H102.846ZM143.306 38H153.306V28H143.306V38ZM143.306 97.94H133.306V107.94H143.306V97.94ZM156.692 97.94V107.94H166.692V97.94H156.692ZM156.692 38V28H146.692V38H156.692ZM197.152 38H207.152V28H197.152V38ZM197.152 97.94H187.152V107.94H197.152V97.94ZM210.538 97.94V107.94H220.538V97.94H210.538ZM210.538 38V28H200.538V38H210.538ZM250.998 38H260.998V28H250.998V38ZM250.998 97.94H240.998V107.94H250.998V97.94ZM251 97.94H261V87.94H251V97.94ZM251 133.24V143.24H261V133.24H251ZM221.331 133.24V123.24H211.331V133.24H221.331ZM221.331 217.6V227.6H231.331V217.6H221.331ZM77.5714 217.6H67.5714V227.6H77.5714V217.6ZM77.5714 133.24H87.5714V123.24H77.5714V133.24ZM49 133.24H39V143.24H49V133.24ZM49 225V215H39V225H49ZM249 225H259V215H249V225ZM49 262H39V272H49V262ZM249 262V272H259V262H249ZM89.46 28H49V48H89.46V28ZM99.46 97.94V38H79.46V97.94H99.46ZM102.846 87.94H89.46V107.94H102.846V87.94ZM92.8462 38V97.94H112.846V38H92.8462ZM143.306 28H102.846V48H143.306V28ZM153.306 97.94V38H133.306V97.94H153.306ZM156.692 87.94H143.306V107.94H156.692V87.94ZM146.692 38V97.94H166.692V38H146.692ZM197.152 28H156.692V48H197.152V28ZM207.152 97.94V38H187.152V97.94H207.152ZM210.538 87.94H197.152V107.94H210.538V87.94ZM200.538 38V97.94H220.538V38H200.538ZM250.998 28H210.538V48H250.998V28ZM260.998 97.94V38H240.998V97.94H260.998ZM251 87.94H250.998V107.94H251V87.94ZM261 133.24V97.94H241V133.24H261ZM221.331 143.24H251V123.24H221.331V143.24ZM231.331 217.6V133.24H211.331V217.6H231.331ZM77.5714 227.6H221.331V207.6H77.5714V227.6ZM67.5714 133.24V217.6H87.5714V133.24H67.5714ZM49 143.24H77.5714V123.24H49V143.24ZM39 106.6V133.24H59V106.6H39ZM39 97.94V106.6H59V97.94H39ZM39 38V97.94H59V38H39ZM49 235H249V215H49V235ZM59 262V225H39V262H59ZM249 252H49V272H249V252ZM239 225V262H259V225H239Z" fill="black" mask="url(#path-1-inside-1_402_2)"/>
<mask id="path-3-inside-2_402_2" fill="white">
<path fill-rule="evenodd" clip-rule="evenodd" d="M50 39H88.4615V98.94H103.846V39H142.308V98.94H157.692V39H196.154V98.94H211.538V39H250V98.94V105.6V132.24H220.33V216.6H78.5714V132.24H50V105.6V98.94V39ZM248 226H50V261H248V226Z"/>
</mask>
<path fill-rule="evenodd" clip-rule="evenodd" d="M50 39H88.4615V98.94H103.846V39H142.308V98.94H157.692V39H196.154V98.94H211.538V39H250V98.94V105.6V132.24H220.33V216.6H78.5714V132.24H50V105.6V98.94V39ZM248 226H50V261H248V226Z" fill="white"/>
<path d="M88.4615 39H98.4615V29H88.4615V39ZM50 39V29H40V39H50ZM88.4615 98.94H78.4615V108.94H88.4615V98.94ZM103.846 98.94V108.94H113.846V98.94H103.846ZM103.846 39V29H93.8462V39H103.846ZM142.308 39H152.308V29H142.308V39ZM142.308 98.94H132.308V108.94H142.308V98.94ZM157.692 98.94V108.94H167.692V98.94H157.692ZM157.692 39V29H147.692V39H157.692ZM196.154 39H206.154V29H196.154V39ZM196.154 98.94H186.154V108.94H196.154V98.94ZM211.538 98.94V108.94H221.538V98.94H211.538ZM211.538 39V29H201.538V39H211.538ZM250 39H260V29H250V39ZM250 132.24V142.24H260V132.24H250ZM220.33 132.24V122.24H210.33V132.24H220.33ZM220.33 216.6V226.6H230.33V216.6H220.33ZM78.5714 216.6H68.5714V226.6H78.5714V216.6ZM78.5714 132.24H88.5714V122.24H78.5714V132.24ZM50 132.24H40V142.24H50V132.24ZM50 226V216H40V226H50ZM248 226H258V216H248V226ZM50 261H40V271H50V261ZM248 261V271H258V261H248ZM88.4615 29H50V49H88.4615V29ZM98.4615 98.94V39H78.4615V98.94H98.4615ZM103.846 88.94H88.4615V108.94H103.846V88.94ZM93.8462 39V98.94H113.846V39H93.8462ZM142.308 29H103.846V49H142.308V29ZM152.308 98.94V39H132.308V98.94H152.308ZM157.692 88.94H142.308V108.94H157.692V88.94ZM147.692 39V98.94H167.692V39H147.692ZM196.154 29H157.692V49H196.154V29ZM206.154 98.94V39H186.154V98.94H206.154ZM211.538 88.94H196.154V108.94H211.538V88.94ZM201.538 39V98.94H221.538V39H201.538ZM250 29H211.538V49H250V29ZM260 98.94V39H240V98.94H260ZM260 105.6V98.94H240V105.6H260ZM260 132.24V105.6H240V132.24H260ZM220.33 142.24H250V122.24H220.33V142.24ZM230.33 216.6V132.24H210.33V216.6H230.33ZM78.5714 226.6H220.33V206.6H78.5714V226.6ZM68.5714 132.24V216.6H88.5714V132.24H68.5714ZM50 142.24H78.5714V122.24H50V142.24ZM40 105.6V132.24H60V105.6H40ZM40 98.94V105.6H60V98.94H40ZM40 39V98.94H60V39H40ZM50 236H248V216H50V236ZM60 261V226H40V261H60ZM248 251H50V271H248V251ZM238 226V261H258V226H238Z" fill="black" mask="url(#path-3-inside-2_402_2)"/>
</svg>
