<svg width="300" height="300" viewBox="0 0 300 300" fill="none" xmlns="http://www.w3.org/2000/svg">
<path d="M154.979 41.1496L154.945 40.8549L154.853 40.5728C154.197 38.555 152.996 36.8747 151.302 35.6017L149.504 37.9949L151.302 35.6017C148.542 33.5273 144.713 32.6736 140.957 34.9275C140.416 35.2515 137.896 36.8052 138.002 40.0963C139.142 75.6108 140.917 110.622 143.326 146.059C138.217 147.089 133.163 148.353 128.164 149.849C114.286 118.483 100.652 86.9766 87.2629 55.331L86.8097 54.2599L85.753 53.7742C80.91 51.5481 76.0331 50.5372 72.3565 52.9883C68.6676 55.4476 67.7612 60.3363 68.0031 65.6368L68.0264 66.1458L68.2164 66.6187C80.7729 97.8627 92.4664 129.303 103.297 160.94C99.5954 162.792 96.1006 164.957 92.8148 167.435C77.9295 151.455 62.8759 135.614 47.654 119.912L47.021 119.259L46.132 119.067C43.312 118.46 40.7716 118.199 38.6228 118.443C36.4656 118.687 34.3357 119.492 32.9515 121.365C31.5813 123.219 31.4076 125.492 31.7473 127.642C32.0884 129.8 32.9997 132.223 34.32 134.848L34.4686 135.144L34.6781 135.4L48.1781 151.9L61.607 168.313C79.5969 194.011 95.8397 220.866 110.336 248.879L110.365 248.936L110.397 248.992C115.323 257.584 122.757 262.791 132.494 264.457L133.124 264.565L133.744 264.406C155.359 258.874 176.617 252.346 197.516 244.823L198.422 244.496L198.969 243.704C217.413 216.972 238.759 192.647 263.012 170.726L263.513 170.273L263.771 169.649C265.095 166.456 265.939 163.584 266.13 161.12C266.321 158.669 265.888 156.144 264.057 154.313C262.248 152.504 259.723 152.029 257.253 152.142C254.751 152.255 251.799 152.984 248.484 154.177L247.983 154.358L247.574 154.7C235.407 164.887 223.315 175.168 211.298 185.546C209.685 172.262 208.1 158.977 206.543 145.691C213.189 118.804 220.297 92.0337 227.869 65.3805C228.718 62.7865 228.711 60.1441 227.846 57.5509L227.566 56.7107L226.874 56.1574C223.994 53.8531 220.853 52.5 217.5 52.5C214.147 52.5 211.006 53.8531 208.126 56.1574L207.379 56.7547L207.116 57.6739C199.693 83.5899 192.069 109.447 184.245 135.246C183.936 135.678 183.534 135.931 182.901 136.06L182.813 136.078L182.727 136.101C178.774 137.156 174.807 138.107 170.825 138.956C164.128 106.631 158.846 74.0295 154.979 41.1496Z" fill="white" stroke="black" stroke-width="6"/>
</svg>
