<svg width="250" height="250" viewBox="0 0 250 250" fill="none" xmlns="http://www.w3.org/2000/svg">
<g clip-path="url(#clip0_811_9)">
<mask id="mask0_811_9" style="mask-type:luminance" maskUnits="userSpaceOnUse" x="-4" y="15" width="250" height="250">
<path d="M246 15H-4V265H246V15Z" fill="white"/>
</mask>
<g mask="url(#mask0_811_9)">
<path d="M95.4998 35.4399V32.4399H90.3098L92.8898 36.9399L95.4898 35.4399H95.4998ZM109 35.5L111.6 33.9499L110.74 32.4399H109L109 35.5ZM199 215.44L196.4 216.93L197.27 218.44H199.01V215.44H199ZM212 215.44V218.44H217.17L214.6 213.95L212 215.44ZM80.9998 35.4399L83.6198 33.9699L82.7598 32.4399H80.9998V35.4399ZM66.9998 35.4399V32.4399H61.8298L64.3998 36.9299L66.9998 35.4399ZM182 215.44V218.44H187.12L184.61 213.97L181.99 215.44H182ZM170 215.44L167.4 216.93L168.26 218.44H170V215.44ZM51.9998 35.4399L54.6098 33.9599L53.7498 32.4399H51.9998V35.4399ZM37.4998 35.4399V32.4399H32.3398L34.8898 36.9199L37.4998 35.4399ZM154 215.44V218.44H159.15L156.61 213.96L154 215.44ZM140 215.44L137.39 216.93L138.25 218.44H139.99V215.44H140ZM95.5 35.5L100.687 38.4399H107.264L109 35.5L109 32.4399H95.4998L95.5 35.5ZM199.01 215.44L200.732 212.44L100.687 38.4399L95.4898 35.4399L92.8998 36.9299L196.4 216.93L199 215.44H199.01ZM212 215.44L206.831 212.44H200.732L199.01 215.44L199 218.44H212V215.44ZM109 35.5L107.264 38.4399L206.831 212.44L212 215.44L214.61 213.95L111.6 33.9499L109 35.5ZM80.9998 32.4399H66.9998V35.4399L72.1693 38.4399H79.2483L80.9998 35.4399V32.4399ZM184.62 213.97L83.6198 33.9699L80.9998 35.4399L79.2483 38.4399L176.882 212.44L181.99 215.44L184.62 213.97ZM170 218.44H182V215.44L176.882 212.44H171.746L170 215.5L170 218.44ZM64.3998 36.9299L167.4 216.93L170 215.44L171.746 212.44L72.1693 38.4399L66.9998 35.4399L64.3898 36.9299H64.3998ZM51.9998 32.4399H37.4998V35.4399L42.6608 38.4399H50.2511L51.9998 35.4399V32.4399ZM156.61 213.96L54.6098 33.9599L51.9998 35.4399L50.2511 38.4399L148.851 212.44L154 215.44L156.61 213.96ZM140 218.44H154V215.44L148.851 212.44H141.74L140 215.44V218.44ZM34.8898 36.9199L137.39 216.92L139.99 215.44L141.74 212.44L42.6608 38.4399L37.4998 35.4399L34.8998 36.9299L34.8898 36.9199Z" fill="black"/>
<path d="M50.2511 38.4399H42.6608L141.74 212.44H148.851L50.2511 38.4399Z" fill="white"/>
<path d="M79.2483 38.4399H72.1693L171.746 212.44H176.882L79.2483 38.4399Z" fill="white"/>
<path d="M107.264 38.4399H100.687L200.732 212.44H206.831L107.264 38.4399Z" fill="white"/>
<path d="M198 35.4399V32.4399H196.26L195.4 33.9499L198 35.4399ZM212 35.4399L214.6 36.9299L217.17 32.4399H212V35.4399ZM95 215.5L92.4001 213.95L89.8301 218.44H95.0001L95 215.5ZM109.051 214.286L109 218.44H110.74L111.6 216.93L109.051 214.286ZM153.5 35.4399L156.11 36.9199L158.64 32.4399H153.5V35.4399ZM139 35.4399V32.4399H137.25L136.39 33.9599L139 35.4399ZM102.25 125.44L99.6501 123.95L99.6473 123.954L99.6301 123.98L99.6101 124.01L102.24 125.45L102.25 125.44ZM102.25 125.44L104.85 126.93V126.9L104.88 126.87L102.368 125.495L102.25 125.43V125.44ZM51.0001 214.236V218.44H52.7501L53.6101 216.92L51.0001 214.236ZM37.0001 215.44L34.3901 213.96L31.8501 218.44H37.0001V215.44ZM183 35.4399L185.6 36.9299L188.17 32.4399H183V35.4399ZM168 35.4399V32.4399H166.24L165.38 33.9699L168 35.4399ZM80.0001 214.244V218.44H81.7401L82.6001 216.93L80.0001 214.244ZM67.0001 215.44L64.3801 213.97L61.8701 218.44H66.9901V215.44H67.0001ZM198 35.4399L199.736 38.4399H206.831L212 35.4399V32.4399H198V35.4399ZM95 215.5L100.169 212.44L199.736 38.4399L198 35.4399L195.39 33.9499L92.3901 213.95L95 215.5ZM109.051 214.286L107.264 212.44H100.169L95 215.5L95.0001 218.44H109L109.051 214.286ZM212 35.4399L206.831 38.4399L107.264 212.44L111.61 216.93L214.6 36.9299L212 35.5V35.4399ZM153.5 32.4399H139L139.031 35.4574L140.749 38.4399H148.359L153.5 35.4399V32.4399ZM104.85 126.93C119.39 101.55 133.94 76.1699 156.11 36.9099L153.5 35.5C152 36.3152 150.93 36.9399 148.359 38.4399C127.618 75.14 113.642 99.5257 99.6698 123.906C99.6632 123.917 99.6567 123.929 99.6501 123.94L102.368 125.495L104.86 126.92L104.85 126.93ZM53.6101 216.91C75.7701 177.67 90.3101 152.3 104.85 126.93L99.6473 123.954L99.6401 123.95C99.2152 124.692 98.7904 125.433 98.3653 126.175C84.4344 150.491 70.2904 175.18 49.2498 212.43C49.5411 211.914 48.9612 212.941 49.2498 212.43L53.6001 216.92L53.6101 216.91ZM37.0001 218.43H51.0001V214.236L49.2498 212.43H42.1544L37.0001 215.44V218.43ZM136.39 33.9599L34.3901 213.96L37.0001 215.44L42.1544 212.43L140.749 38.4399L139 35.4574L136.39 33.9599ZM183 32.4399H168V35.4399L169.761 38.4399H177.821L183 35.4399V32.4399ZM82.6001 216.93L185.6 36.9299L183 35.4399L177.821 38.4399L78.2542 212.44L82.6001 216.93ZM67.0001 218.44H80.0001V214.244L78.2542 212.44H72.1185L66.9901 215.44L67.0001 218.44ZM165.38 33.9699L64.3801 213.97L67 215.5L72.1185 212.44L169.761 38.4399L168 35.4399L165.39 33.9699H165.38Z" fill="black"/>
<path d="M198 35.4399V32.4399H196.26L195.4 33.9499L198 35.4399ZM212 35.4399L214.6 36.9299L217.17 32.4399H212V35.4399ZM95 215.5L92.4001 213.95L89.8301 218.44H95.0001L95 215.5ZM109.051 214.286L109 218.44H110.74L111.6 216.93L109.051 214.286ZM153.5 35.4399L156.11 36.9199L158.64 32.4399H153.5V35.4399ZM139 35.4399V32.4399H137.25L136.39 33.9599L139 35.4399ZM102.25 125.44L99.6501 123.95L99.6473 123.954L99.6301 123.98L99.6101 124.01L102.24 125.45L102.25 125.44ZM102.25 125.44L104.85 126.93V126.9L104.88 126.87L102.368 125.495L102.25 125.43V125.44ZM51.0001 214.236V218.44H52.7501L53.6101 216.92L51.0001 214.236ZM37.0001 215.44L34.3901 213.96L31.8501 218.44H37.0001V215.44ZM183 35.4399L185.6 36.9299L188.17 32.4399H183V35.4399ZM168 35.4399V32.4399H166.24L165.38 33.9699L168 35.4399ZM80.0001 214.244V218.44H81.7401L82.6001 216.93L80.0001 214.244ZM67.0001 215.44L64.3801 213.97L61.8701 218.44H66.9901V215.44H67.0001ZM198 35.4399L199.736 38.4399H206.831L212 35.4399V32.4399H198V35.4399ZM95 215.5L100.169 212.44L199.736 38.4399L198 35.4399L195.39 33.9499L92.3901 213.95L95 215.5ZM109.051 214.286L107.264 212.44H100.169L95 215.5L95.0001 218.44H109L109.051 214.286ZM212 35.4399L206.831 38.4399L107.264 212.44L111.61 216.93L214.6 36.9299L212 35.5V35.4399ZM153.5 32.4399H139L139.031 35.4574L140.749 38.4399H148.359L153.5 35.4399V32.4399ZM104.85 126.93C119.39 101.55 133.94 76.1699 156.11 36.9099L153.5 35.5C152 36.3152 150.93 36.9399 148.359 38.4399C127.618 75.14 113.642 99.5257 99.6698 123.906C99.6632 123.917 99.6567 123.929 99.6501 123.94L102.368 125.495L104.86 126.92L104.85 126.93ZM53.6101 216.91C75.7701 177.67 90.3101 152.3 104.85 126.93L99.6473 123.954L99.6401 123.95C99.2152 124.692 98.7904 125.433 98.3653 126.175C84.4344 150.491 70.2904 175.18 49.2498 212.43C49.5411 211.914 48.9612 212.941 49.2498 212.43L53.6001 216.92L53.6101 216.91ZM37.0001 218.43H51.0001V214.236L49.2498 212.43H42.1544L37.0001 215.44V218.43ZM136.39 33.9599L34.3901 213.96L37.0001 215.44L42.1544 212.43L140.749 38.4399L139 35.4574L136.39 33.9599ZM183 32.4399H168V35.4399L169.761 38.4399H177.821L183 35.4399V32.4399ZM82.6001 216.93L185.6 36.9299L183 35.4399L177.821 38.4399L78.2542 212.44L82.6001 216.93ZM67.0001 218.44H80.0001V214.244L78.2542 212.44H72.1185L66.9901 215.44L67.0001 218.44ZM165.38 33.9699L64.3801 213.97L67 215.5L72.1185 212.44L169.761 38.4399L168 35.4399L165.39 33.9699H165.38Z" fill="black" fill-opacity="0.2"/>
<path d="M177.821 38.4399H169.761L72.1185 212.44H78.2542L177.821 38.4399Z" fill="white"/>
<path d="M206.831 38.4399H199.736L100.169 212.44H107.264L206.831 38.4399Z" fill="white"/>
<path d="M99.6501 123.95L102.25 125.44V125.43L102.368 125.495L99.6501 123.94L99.6698 123.906C113.642 99.5257 127.618 75.14 148.359 38.4399H140.749L42.1544 212.43H49.2498C70.2904 175.18 84.4344 150.491 98.3653 126.175L99.6401 123.95L99.6473 123.954L99.6501 123.95Z" fill="white"/>
</g>
</g>
<defs>
<clipPath id="clip0_811_9">
<rect width="250" height="251" fill="white"/>
</clipPath>
</defs>
</svg>
